<svg x="0px" y="0px" viewBox="0 0 320 166.3" xml:space="preserve">
<style type="text/css">
	.st0{fill:none;stroke:#FFFFFF;stroke-width:2;stroke-miterlimit:10;}
	.st1{fill:none;stroke:#FFFFFF;stroke-width:0.5;stroke-miterlimit:10;}
	.st2{fill:none;stroke:#FFFFFF;stroke-miterlimit:10;}
	.st3{display:none;fill:none;stroke:#FFFFFF;stroke-width:2;stroke-miterlimit:10;}
</style>
<g class="xeno-chiku">
	<g class="xeno-eye">
		<g>
			<path class="st0" d="M228.7,92.3c0,0,0-0.9-0.1-2.3c0-0.3,0-0.7,0-1.1c0-0.4-0.1-0.8-0.1-1.2c-0.1-0.9-0.1-1.8-0.2-2.7
				c-0.1-0.9-0.2-1.9-0.3-2.7c-0.2-0.9-0.3-1.6-0.4-2.3c-0.2-1.4-0.5-2.3-0.5-2.3"/>
			<path class="st0" d="M226.4,74.8c0,0-0.2-0.9-0.6-2.3c-0.2-0.7-0.5-1.4-0.7-2.3c-0.2-0.4-0.3-0.9-0.4-1.2
				c-0.2-0.4-0.3-0.9-0.5-1.2c-0.6-1.7-1.4-3.4-2-4.7c-0.6-1.2-1-2-1-2"/>
			<path class="st0" d="M219.6,58.4c0,0-0.1-0.2-0.3-0.5c-0.2-0.4-0.5-0.9-0.9-1.4c-0.4-0.5-0.8-1.2-1.2-2
				c-0.5-0.7-1-1.5-1.6-2.2c-2.2-3-4.7-5.7-4.7-5.7"/>
			<path class="st0" d="M208.9,44.4c0,0-0.7-0.6-1.6-1.6c-0.5-0.5-1.1-1-1.8-1.6c-0.6-0.5-1.3-1.2-2.1-1.7c-2.9-2.3-6-4.3-6-4.3
				"/>
			<path class="st0" d="M194.8,33.6c0,0-3.2-1.9-6.6-3.4c-0.9-0.4-1.7-0.7-2.5-1c-0.8-0.3-1.6-0.6-2.2-0.9
				c-1.3-0.5-2.2-0.8-2.2-0.8"/>
			<path class="st0" d="M178.5,26.9c0,0-0.2-0.1-0.6-0.2c-0.4-0.1-0.9-0.2-1.6-0.4c-1.3-0.3-3.2-0.6-5-1
				c-1.9-0.2-3.7-0.5-5.1-0.5c-0.7-0.1-1.2-0.1-1.6-0.2c-0.4,0-0.6,0-0.6,0"/>
			<path class="st0" d="M160.9,24.5c0,0-0.9,0-2.3,0.1c-0.3,0-0.7,0-1.1,0c-0.4,0-0.8,0.1-1.2,0.1c-0.9,0.1-1.8,0.1-2.7,0.2
				c-0.9,0.1-1.9,0.2-2.7,0.3c-0.9,0.2-1.6,0.3-2.3,0.4c-1.4,0.2-2.3,0.5-2.3,0.5"/>
			<path class="st0" d="M143.3,26.9c0,0-0.9,0.2-2.3,0.6c-0.7,0.2-1.4,0.5-2.3,0.7c-0.4,0.2-0.9,0.3-1.2,0.4
				c-0.4,0.2-0.9,0.3-1.2,0.5c-1.7,0.6-3.4,1.4-4.7,2c-1.2,0.6-2,1-2,1"/>
			<path class="st1" d="M222.3,89.6c0,0,0-0.2,0-0.5c0-0.4-0.1-0.9-0.2-1.5c-0.1-1.2-0.3-2.9-0.5-4.6c-0.3-1.6-0.5-3.3-0.9-4.5
				c-0.2-0.6-0.2-1.1-0.3-1.5c-0.1-0.4-0.2-0.5-0.2-0.5"/>
			<path class="st1" d="M219.6,73.8c0,0-0.2-0.8-0.7-1.9c-0.2-0.6-0.5-1.2-0.8-2c-0.3-0.7-0.5-1.5-0.9-2.3c-1.3-3.1-3-6-3-6"/>
			<path class="st1" d="M212.8,59.3c0,0-1.8-2.9-3.9-5.5c-0.5-0.7-1.1-1.3-1.6-1.9c-0.5-0.6-1-1.2-1.4-1.6
				c-0.9-0.9-1.5-1.6-1.5-1.6"/>
			<path class="st1" d="M202.5,47c0,0-2.5-2.3-5.2-4.3c-0.7-0.5-1.4-0.9-2-1.4c-0.7-0.4-1.2-0.9-1.8-1.2c-0.5-0.3-1-0.6-1.3-0.8
				c-0.3-0.2-0.5-0.3-0.5-0.3"/>
			<path class="st1" d="M189.3,37.8c0,0-0.8-0.4-1.9-0.9c-1.2-0.5-2.6-1.2-4.2-1.8c-0.4-0.2-0.8-0.3-1.2-0.5
				c-0.4-0.2-0.8-0.2-1.2-0.4c-0.8-0.2-1.4-0.5-2-0.7c-1.2-0.3-2-0.5-2-0.5"/>
			<path class="st1" d="M174.3,32.2c0,0-0.8-0.2-2-0.4c-0.6-0.1-1.3-0.2-2.1-0.4c-0.8-0.1-1.6-0.2-2.4-0.3
				c-0.9-0.1-1.6-0.2-2.5-0.2c-0.4,0-0.8-0.1-1.2-0.1c-0.4,0-0.7,0-1,0c-1.2,0-2.1-0.1-2.1-0.1"/>
			<path class="st1" d="M158.2,30.8c0,0-0.2,0-0.5,0c-0.4,0-0.9,0.1-1.5,0.2c-1.2,0.1-2.9,0.3-4.6,0.5c-1.6,0.3-3.3,0.5-4.5,0.9
				c-0.6,0.2-1.1,0.2-1.5,0.3c-0.4,0.1-0.5,0.2-0.5,0.2"/>
			<path class="st1" d="M142.4,33.6c0,0-0.8,0.2-1.9,0.7c-0.6,0.2-1.2,0.5-2,0.8c-0.7,0.3-1.5,0.5-2.3,0.9c-3.1,1.3-6,3-6,3"/>
			<path class="st1" d="M234.8,89.1c0,0,0-0.2,0-0.7c0-0.5-0.1-1.1-0.2-1.8c-0.1-1.5-0.4-3.5-0.6-5.5c-0.3-2-0.7-4-1.1-5.5
				c-0.2-0.7-0.3-1.3-0.4-1.8c-0.2-0.4-0.2-0.7-0.2-0.7"/>
			<path class="st1" d="M231.5,70c0,0-0.3-0.9-0.8-2.4c-0.2-0.7-0.5-1.6-0.9-2.4c-0.3-0.9-0.7-1.8-1.2-2.7
				c-1.6-3.7-3.7-7.2-3.7-7.2"/>
			<path class="st1" d="M223.3,52.6c0,0-2.1-3.4-4.7-6.5c-0.6-0.8-1.3-1.6-1.9-2.3c-0.6-0.7-1.2-1.4-1.7-1.9
				c-1-1.1-1.7-1.8-1.7-1.8"/>
			<path class="st1" d="M210.9,37.8c0,0-3-2.7-6.2-5.1c-0.9-0.5-1.6-1.2-2.4-1.7c-0.8-0.5-1.6-1-2.2-1.4
				c-0.6-0.4-1.2-0.7-1.6-0.9c-0.4-0.2-0.6-0.3-0.6-0.3"/>
			<path class="st1" d="M195.1,26.7c0,0-0.9-0.5-2.3-1.2c-1.4-0.6-3.2-1.5-5.1-2.2c-0.5-0.2-0.9-0.4-1.4-0.5
				c-0.5-0.2-0.9-0.3-1.4-0.5c-0.9-0.3-1.7-0.6-2.5-0.8c-1.5-0.4-2.4-0.7-2.4-0.7"/>
			<path class="st1" d="M176.9,20.1c0,0-1-0.2-2.5-0.5c-0.8-0.2-1.6-0.3-2.6-0.5c-0.9-0.2-1.9-0.2-3-0.4c-1-0.2-2-0.2-3-0.2
				c-0.5,0-0.9-0.1-1.3-0.1c-0.5,0-0.9,0-1.2,0c-1.5,0-2.5-0.1-2.5-0.1"/>
			<path class="st1" d="M157.7,18.4c0,0-0.2,0-0.7,0s-1.1,0.1-1.8,0.2c-1.5,0.1-3.5,0.4-5.5,0.6c-2,0.3-4,0.7-5.5,1.1
				c-0.7,0.2-1.3,0.3-1.8,0.4c-0.4,0.2-0.7,0.2-0.7,0.2"/>
			<path class="st1" d="M138.6,21.7c0,0-0.9,0.3-2.4,0.8c-0.7,0.2-1.6,0.5-2.4,0.9c-0.9,0.3-1.8,0.7-2.7,1.2
				c-3.7,1.6-7.2,3.7-7.2,3.7"/>
			<path class="st0" d="M127,33.6c0,0-0.2,0.1-0.5,0.3c-0.4,0.2-0.9,0.5-1.4,0.9c-0.5,0.4-1.2,0.8-2,1.2c-0.7,0.5-1.5,1-2.2,1.6
				c-3,2.2-5.7,4.7-5.7,4.7"/>
			<path class="st0" d="M113,44.4c0,0-0.6,0.7-1.6,1.6c-0.5,0.5-1,1.1-1.6,1.8c-0.5,0.6-1.2,1.3-1.7,2.1c-2.3,2.9-4.3,6-4.3,6"
				/>
			<path class="st0" d="M102.2,58.4c0,0-1.9,3.2-3.4,6.6c-0.4,0.9-0.7,1.7-1,2.5c-0.3,0.8-0.6,1.6-0.9,2.2
				c-0.5,1.3-0.8,2.2-0.8,2.2"/>
			<path class="st0" d="M95.4,74.8c0,0-0.1,0.2-0.2,0.6c-0.1,0.4-0.2,0.9-0.4,1.6c-0.3,1.3-0.6,3.2-1,5
				c-0.2,1.9-0.5,3.7-0.5,5.1c-0.1,0.7-0.1,1.2-0.2,1.6c0,0.4,0,0.6,0,0.6"/>
			<path class="st0" d="M93.1,92.3c0,0,0,0.9,0.1,2.3c0,0.3,0,0.7,0,1.1s0.1,0.8,0.1,1.2c0.1,0.9,0.1,1.8,0.2,2.7
				c0.1,0.9,0.2,1.9,0.3,2.7c0.2,0.9,0.3,1.6,0.4,2.3c0.2,1.4,0.5,2.3,0.5,2.3"/>
			<path class="st0" d="M95.4,109.9c0,0,0.2,0.9,0.6,2.3c0.2,0.7,0.5,1.4,0.7,2.3c0.2,0.4,0.3,0.9,0.4,1.2
				c0.2,0.4,0.3,0.9,0.5,1.2c0.6,1.7,1.4,3.4,2,4.7c0.6,1.2,1,2,1,2"/>
			<path class="st0" d="M102.2,126.2c0,0,0.1,0.2,0.3,0.5c0.2,0.4,0.5,0.9,0.9,1.4c0.4,0.5,0.8,1.2,1.2,2c0.5,0.7,1,1.5,1.6,2.2
				c2.2,3,4.7,5.7,4.7,5.7"/>
			<path class="st0" d="M113,140.3c0,0,0.7,0.6,1.6,1.6c0.5,0.5,1.1,1,1.8,1.6c0.6,0.5,1.3,1.2,2.1,1.7c2.9,2.3,6,4.3,6,4.3"/>
			<path class="st1" d="M127.8,40.4c0,0-2.9,1.8-5.5,3.9c-0.7,0.5-1.3,1.1-1.9,1.6c-0.6,0.5-1.2,1-1.6,1.4
				c-0.9,0.9-1.6,1.5-1.6,1.5"/>
			<path class="st1" d="M115.5,50.8c0,0-2.3,2.5-4.3,5.2c-0.5,0.7-0.9,1.4-1.4,2c-0.4,0.7-0.9,1.2-1.2,1.8
				c-0.3,0.5-0.6,1-0.8,1.3s-0.3,0.5-0.3,0.5"/>
			<path class="st1" d="M106.3,63.9c0,0-0.4,0.8-0.9,1.9c-0.5,1.2-1.2,2.6-1.8,4.2c-0.2,0.4-0.3,0.8-0.5,1.2
				c-0.2,0.4-0.2,0.8-0.4,1.2c-0.2,0.8-0.5,1.4-0.7,2c-0.3,1.2-0.5,2-0.5,2"/>
			<path class="st1" d="M100.8,79c0,0-0.2,0.8-0.4,2c-0.1,0.6-0.2,1.3-0.4,2.1c-0.1,0.8-0.2,1.6-0.3,2.4
				c-0.1,0.9-0.2,1.6-0.2,2.5c0,0.4-0.1,0.8-0.1,1.2c0,0.4,0,0.7,0,1c0,1.2-0.1,2.1-0.1,2.1"/>
			<path class="st1" d="M99.4,95c0,0,0,0.2,0,0.5c0,0.4,0.1,0.9,0.2,1.5c0.1,1.2,0.3,2.9,0.5,4.6c0.3,1.6,0.5,3.3,0.9,4.5
				c0.2,0.6,0.2,1.1,0.3,1.5c0.1,0.4,0.2,0.5,0.2,0.5"/>
			<path class="st1" d="M102.2,110.9c0,0,0.2,0.8,0.7,1.9c0.2,0.6,0.5,1.2,0.8,2c0.3,0.7,0.5,1.5,0.9,2.3c1.3,3.1,3,6,3,6"/>
			<path class="st1" d="M109,125.4c0,0,1.8,2.9,3.9,5.5c0.5,0.7,1.1,1.3,1.6,1.9c0.5,0.6,1,1.2,1.4,1.6c0.9,0.9,1.5,1.6,1.5,1.6
				"/>
			<path class="st1" d="M119.3,137.7c0,0,2.5,2.3,5.2,4.3c0.7,0.5,1.4,0.9,2,1.4c0.7,0.4,1.2,0.9,1.8,1.2c0.5,0.3,1,0.6,1.3,0.8
				c0.3,0.2,0.5,0.3,0.5,0.3"/>
			<path class="st1" d="M121.1,29.9c0,0-3.4,2.1-6.5,4.7c-0.8,0.6-1.6,1.3-2.3,1.9c-0.7,0.6-1.4,1.2-1.9,1.7
				c-1.1,1-1.8,1.7-1.8,1.7"/>
			<path class="st1" d="M106.3,42.3c0,0-2.7,3-5.1,6.2c-0.5,0.9-1.2,1.6-1.7,2.4s-1,1.6-1.4,2.2s-0.7,1.2-0.9,1.6
				c-0.2,0.4-0.3,0.6-0.3,0.6"/>
			<path class="st1" d="M95.2,58.1c0,0-0.5,0.9-1.2,2.3c-0.6,1.4-1.5,3.2-2.2,5.1c-0.2,0.5-0.4,0.9-0.5,1.4
				c-0.2,0.5-0.3,0.9-0.5,1.4c-0.3,0.9-0.6,1.7-0.8,2.5c-0.4,1.5-0.7,2.4-0.7,2.4"/>
			<path class="st1" d="M88.6,76.4c0,0-0.2,1-0.5,2.5c-0.2,0.8-0.3,1.6-0.5,2.6c-0.2,0.9-0.2,1.9-0.4,3c-0.2,1-0.2,2-0.2,3
				c0,0.5-0.1,0.9-0.1,1.3c0,0.5,0,0.9,0,1.2c0,1.5-0.1,2.5-0.1,2.5"/>
			<path class="st1" d="M87,95.5c0,0,0,0.2,0,0.7s0.1,1.1,0.2,1.8c0.1,1.5,0.4,3.5,0.6,5.5c0.3,2,0.7,4,1.1,5.5
				c0.2,0.7,0.3,1.3,0.4,1.8c0.2,0.4,0.2,0.7,0.2,0.7"/>
			<path class="st1" d="M90.3,114.6c0,0,0.3,0.9,0.8,2.4c0.2,0.7,0.5,1.6,0.9,2.4c0.3,0.9,0.7,1.8,1.2,2.7
				c1.6,3.7,3.7,7.2,3.7,7.2"/>
			<path class="st1" d="M98.5,132.1c0,0,2.1,3.4,4.7,6.5c0.6,0.8,1.3,1.6,1.9,2.3c0.6,0.7,1.2,1.4,1.7,1.9
				c1,1.1,1.7,1.8,1.7,1.8"/>
			<path class="st1" d="M110.9,146.9c0,0,3,2.7,6.2,5.1c0.9,0.5,1.6,1.2,2.4,1.7c0.8,0.5,1.6,1,2.2,1.4c0.6,0.4,1.2,0.7,1.6,0.9
				c0.4,0.2,0.6,0.3,0.6,0.3"/>
			<path class="st0" d="M127,151c0,0,3.2,1.9,6.6,3.4c0.9,0.4,1.7,0.7,2.5,1s1.6,0.6,2.2,0.9c1.3,0.5,2.2,0.8,2.2,0.8"/>
			<path class="st0" d="M143.3,157.8c0,0,0.2,0.1,0.6,0.2s0.9,0.2,1.6,0.4c1.3,0.3,3.2,0.6,5,1c1.9,0.2,3.7,0.5,5.1,0.5
				c0.7,0.1,1.2,0.1,1.6,0.2c0.4,0,0.6,0,0.6,0"/>
			<path class="st0" d="M160.9,160.1c0,0,0.9,0,2.3-0.1c0.3,0,0.7,0,1.1,0s0.8-0.1,1.2-0.1c0.9-0.1,1.8-0.1,2.7-0.2
				c0.9-0.1,1.9-0.2,2.7-0.3c0.9-0.2,1.6-0.3,2.3-0.4c1.4-0.2,2.3-0.5,2.3-0.5"/>
			<path class="st0" d="M178.5,157.8c0,0,0.9-0.2,2.3-0.6c0.7-0.2,1.4-0.5,2.3-0.7c0.4-0.2,0.9-0.3,1.2-0.4
				c0.4-0.2,0.9-0.3,1.2-0.5c1.7-0.6,3.4-1.4,4.7-2c1.2-0.6,2-1,2-1"/>
			<path class="st0" d="M194.8,151c0,0,0.2-0.1,0.5-0.3c0.4-0.2,0.9-0.5,1.4-0.9c0.5-0.4,1.2-0.8,2-1.2c0.7-0.5,1.5-1,2.2-1.6
				c3-2.2,5.7-4.7,5.7-4.7"/>
			<path class="st0" d="M208.9,140.3c0,0,0.6-0.7,1.6-1.6c0.5-0.5,1-1.1,1.6-1.8c0.5-0.6,1.2-1.3,1.7-2.1c2.3-2.9,4.3-6,4.3-6"
				/>
			<path class="st0" d="M219.6,126.2c0,0,1.9-3.2,3.4-6.6c0.4-0.9,0.7-1.7,1-2.5c0.3-0.8,0.6-1.6,0.9-2.2
				c0.5-1.3,0.8-2.2,0.8-2.2"/>
			<path class="st0" d="M226.4,109.9c0,0,0.1-0.2,0.2-0.6c0.1-0.4,0.2-0.9,0.4-1.6c0.3-1.3,0.6-3.2,1-5c0.2-1.9,0.5-3.7,0.5-5.1
				c0.1-0.7,0.1-1.2,0.2-1.6c0-0.4,0-0.6,0-0.6"/>
			<path class="st1" d="M132.5,146.9c0,0,0.8,0.4,1.9,0.9c1.2,0.5,2.6,1.2,4.2,1.8c0.4,0.2,0.8,0.3,1.2,0.5
				c0.4,0.2,0.8,0.2,1.2,0.4c0.8,0.2,1.4,0.5,2,0.7c1.2,0.3,2,0.5,2,0.5"/>
			<path class="st1" d="M147.6,152.4c0,0,0.8,0.2,2,0.4c0.6,0.1,1.3,0.2,2.1,0.4c0.8,0.1,1.6,0.2,2.4,0.3
				c0.9,0.1,1.6,0.2,2.5,0.2c0.4,0,0.8,0.1,1.2,0.1c0.4,0,0.7,0,1,0c1.2,0,2.1,0.1,2.1,0.1"/>
			<path class="st1" d="M163.6,153.8c0,0,0.2,0,0.5,0c0.4,0,0.9-0.1,1.5-0.2c1.2-0.1,2.9-0.3,4.6-0.5c1.6-0.3,3.3-0.5,4.5-0.9
				c0.6-0.2,1.1-0.2,1.5-0.3c0.4-0.1,0.5-0.2,0.5-0.2"/>
			<path class="st1" d="M179.4,151c0,0,0.8-0.2,1.9-0.7c0.6-0.2,1.2-0.5,2-0.8c0.7-0.3,1.5-0.5,2.3-0.9c3.1-1.3,6-3,6-3"/>
			<path class="st1" d="M194,144.2c0,0,2.9-1.8,5.5-3.9c0.7-0.5,1.3-1.1,1.9-1.6c0.6-0.5,1.2-1,1.6-1.4c0.9-0.9,1.6-1.5,1.6-1.5
				"/>
			<path class="st1" d="M206.3,133.9c0,0,2.3-2.5,4.3-5.2c0.5-0.7,0.9-1.4,1.4-2c0.4-0.7,0.9-1.2,1.2-1.8c0.3-0.5,0.6-1,0.8-1.3
				c0.2-0.3,0.3-0.5,0.3-0.5"/>
			<path class="st1" d="M215.5,120.8c0,0,0.4-0.8,0.9-1.9c0.5-1.2,1.2-2.6,1.8-4.2c0.2-0.4,0.3-0.8,0.5-1.2
				c0.2-0.4,0.2-0.8,0.4-1.2c0.2-0.8,0.5-1.4,0.7-2c0.3-1.2,0.5-2,0.5-2"/>
			<path class="st1" d="M220.9,105.7c0,0,0.2-0.8,0.4-2c0.1-0.6,0.2-1.3,0.4-2.1c0.1-0.8,0.2-1.6,0.3-2.4
				c0.1-0.9,0.2-1.6,0.2-2.5c0-0.4,0.1-0.8,0.1-1.2c0-0.4,0-0.7,0-1c0-1.2,0.1-2.1,0.1-2.1"/>
			<path class="st1" d="M126.7,158c0,0,0.9,0.5,2.3,1.2c1.4,0.6,3.2,1.5,5.1,2.2c0.5,0.2,0.9,0.4,1.4,0.5
				c0.5,0.2,0.9,0.3,1.4,0.5c0.9,0.3,1.7,0.6,2.5,0.8c1.5,0.4,2.4,0.7,2.4,0.7"/>
			<path class="st1" d="M144.9,164.6c0,0,1,0.2,2.5,0.5c0.8,0.2,1.6,0.3,2.6,0.5c0.9,0.2,1.9,0.2,3,0.4s2,0.2,3,0.2
				c0.5,0,0.9,0.1,1.3,0.1c0.5,0,0.9,0,1.2,0c1.5,0,2.5,0.1,2.5,0.1"/>
			<path class="st1" d="M164.1,166.3c0,0,0.2,0,0.7,0c0.5,0,1.1-0.1,1.8-0.2c1.5-0.1,3.5-0.4,5.5-0.6c2-0.3,4-0.7,5.5-1.1
				c0.7-0.2,1.3-0.3,1.8-0.4c0.4-0.2,0.7-0.2,0.7-0.2"/>
			<path class="st1" d="M183.1,162.9c0,0,0.9-0.3,2.4-0.8c0.7-0.2,1.6-0.5,2.4-0.9c0.9-0.3,1.8-0.7,2.7-1.2
				c3.7-1.6,7.2-3.7,7.2-3.7"/>
			<path class="st1" d="M200.7,154.8c0,0,3.4-2.1,6.5-4.7c0.8-0.6,1.6-1.3,2.3-1.9c0.7-0.6,1.4-1.2,1.9-1.7
				c1.1-1,1.8-1.7,1.8-1.7"/>
			<path class="st1" d="M215.5,142.4c0,0,2.7-3,5.1-6.2c0.5-0.9,1.2-1.6,1.7-2.4s1-1.6,1.4-2.2c0.4-0.6,0.7-1.2,0.9-1.6
				c0.2-0.4,0.3-0.6,0.3-0.6"/>
			<path class="st1" d="M226.6,126.5c0,0,0.5-0.9,1.2-2.3c0.6-1.4,1.5-3.2,2.2-5.1c0.2-0.5,0.4-0.9,0.5-1.4
				c0.2-0.5,0.3-0.9,0.5-1.4c0.3-0.9,0.6-1.7,0.8-2.5c0.4-1.5,0.7-2.4,0.7-2.4"/>
			<path class="st1" d="M233.2,108.3c0,0,0.2-1,0.5-2.5c0.2-0.8,0.3-1.6,0.5-2.6c0.2-0.9,0.2-1.9,0.4-3c0.2-1,0.2-2,0.2-3
				c0-0.5,0.1-0.9,0.1-1.3c0-0.5,0-0.9,0-1.2c0-1.5,0.1-2.5,0.1-2.5"/>
			<line class="st2" x1="211.8" y1="91.9" x2="218.1" y2="91.9"/>
			<line class="st2" x1="217.7" y1="85.5" x2="223.9" y2="84.8"/>
			<line class="st2" x1="224.2" y1="88.3" x2="230.5" y2="87.9"/>
			<line class="st2" x1="210.5" y1="80.6" x2="216.6" y2="79.2"/>
			<line class="st2" x1="214.7" y1="72.9" x2="220.6" y2="70.8"/>
			<line class="st2" x1="221.7" y1="74.2" x2="227.6" y2="72.5"/>
			<line class="st2" x1="206.6" y1="69.7" x2="212.2" y2="67"/>
			<line class="st2" x1="209" y1="61.4" x2="214.2" y2="58"/>
			<line class="st2" x1="216.1" y1="61.1" x2="221.5" y2="58"/>
			<line class="st2" x1="200.4" y1="60.1" x2="205.2" y2="56.2"/>
			<line class="st2" x1="200.8" y1="51.4" x2="205.2" y2="46.9"/>
			<line class="st2" x1="207.7" y1="49.5" x2="212.3" y2="45.3"/>
			<line class="st2" x1="192.1" y1="52" x2="195.9" y2="47.1"/>
			<line class="st2" x1="190.6" y1="43.5" x2="193.9" y2="38.2"/>
			<line class="st2" x1="196.9" y1="40.1" x2="200.4" y2="35"/>
			<line class="st2" x1="182.4" y1="46.1" x2="184.9" y2="40.4"/>
			<line class="st2" x1="178.9" y1="38.1" x2="181" y2="32.2"/>
			<line class="st2" x1="184.3" y1="33.3" x2="186.6" y2="27.6"/>
			<line class="st2" x1="176.3" y1="43.8" x2="178.2" y2="37.8"/>
			<line class="st2" x1="171.9" y1="36.2" x2="173.2" y2="30.1"/>
			<line class="st2" x1="176.6" y1="30.8" x2="178.2" y2="24.8"/>
			<line class="st2" x1="165.1" y1="41.5" x2="165.5" y2="35.4"/>
			<line class="st2" x1="159.1" y1="35.2" x2="158.9" y2="29"/>
			<line class="st2" x1="162.5" y1="29" x2="162.6" y2="22.7"/>
			<line class="st2" x1="153.5" y1="41.9" x2="152.7" y2="35.7"/>
			<line class="st2" x1="146.3" y1="37" x2="144.7" y2="31"/>
			<line class="st2" x1="148.2" y1="30.1" x2="147" y2="24.1"/>
			<line class="st2" x1="142.5" y1="44.8" x2="140.2" y2="39"/>
			<line class="st2" x1="134.3" y1="41.7" x2="131.4" y2="36.1"/>
			<line class="st2" x1="134.6" y1="34.6" x2="132" y2="28.9"/>
			<line class="st2" x1="132.3" y1="50.2" x2="128.7" y2="45"/>
			<line class="st2" x1="123.7" y1="48.9" x2="119.6" y2="44.2"/>
			<line class="st2" x1="122.4" y1="42" x2="118.5" y2="37"/>
			<line class="st2" x1="123.5" y1="57.6" x2="119" y2="53.4"/>
			<line class="st2" x1="114.9" y1="58.4" x2="109.8" y2="54.7"/>
			<line class="st2" x1="112.1" y1="51.9" x2="107.2" y2="47.9"/>
			<line class="st2" x1="119.5" y1="62.7" x2="114.4" y2="59.1"/>
			<line class="st2" x1="110.9" y1="64.5" x2="105.5" y2="61.5"/>
			<line class="st2" x1="107.3" y1="58.4" x2="102.1" y2="55"/>
			<line class="st2" x1="113.9" y1="72.7" x2="108.1" y2="70.3"/>
			<line class="st2" x1="106" y1="76.4" x2="100" y2="74.6"/>
			<line class="st2" x1="101.1" y1="71.2" x2="95.2" y2="69.2"/>
			<line class="st2" x1="110.7" y1="83.8" x2="104.5" y2="82.7"/>
			<line class="st2" x1="103.8" y1="89.1" x2="97.6" y2="88.7"/>
			<line class="st2" x1="97.9" y1="85.2" x2="91.7" y2="84.5"/>
			<line class="st2" x1="110" y1="95.2" x2="103.8" y2="95.5"/>
			<line class="st2" x1="104.5" y1="102" x2="98.4" y2="103"/>
			<line class="st2" x1="97.9" y1="99.5" x2="91.7" y2="100.2"/>
			<line class="st2" x1="112" y1="106.5" x2="106" y2="108.3"/>
			<line class="st2" x1="108.1" y1="114.4" x2="102.3" y2="116.8"/>
			<line class="st2" x1="101.1" y1="113.5" x2="95.2" y2="115.5"/>
			<line class="st2" x1="116.4" y1="117.1" x2="110.9" y2="120.2"/>
			<line class="st2" x1="114.4" y1="125.6" x2="109.3" y2="129.3"/>
			<line class="st2" x1="107.3" y1="126.3" x2="102.1" y2="129.6"/>
			<line class="st2" x1="119.9" y1="122.6" x2="114.9" y2="126.3"/>
			<line class="st2" x1="119" y1="131.2" x2="114.4" y2="135.5"/>
			<line class="st2" x1="112.1" y1="132.8" x2="107.2" y2="136.8"/>
			<line class="st2" x1="127.7" y1="131" x2="123.7" y2="135.7"/>
			<line class="st2" x1="128.7" y1="139.6" x2="125.2" y2="144.8"/>
			<line class="st2" x1="122.4" y1="142.7" x2="118.5" y2="147.7"/>
			<line class="st2" x1="137.2" y1="137.5" x2="134.3" y2="143"/>
			<line class="st2" x1="140.2" y1="145.6" x2="137.9" y2="151.5"/>
			<line class="st2" x1="134.6" y1="150.1" x2="132" y2="155.8"/>
			<line class="st2" x1="147.9" y1="141.6" x2="146.3" y2="147.7"/>
			<line class="st2" x1="152.7" y1="148.9" x2="151.7" y2="155.1"/>
			<line class="st2" x1="148.2" y1="154.5" x2="147" y2="160.6"/>
			<line class="st2" x1="159.3" y1="143.2" x2="159.1" y2="149.5"/>
			<line class="st2" x1="165.5" y1="149.3" x2="166.1" y2="155.5"/>
			<line class="st2" x1="162.5" y1="155.7" x2="162.6" y2="161.9"/>
			<line class="st2" x1="170.8" y1="142.4" x2="171.9" y2="148.4"/>
			<line class="st2" x1="178.2" y1="146.9" x2="180.1" y2="152.8"/>
			<line class="st2" x1="176.6" y1="153.8" x2="178.2" y2="159.8"/>
			<line class="st2" x1="177" y1="140.7" x2="178.9" y2="146.6"/>
			<line class="st2" x1="184.9" y1="144.2" x2="187.6" y2="149.8"/>
			<line class="st2" x1="184.3" y1="151.3" x2="186.6" y2="157.1"/>
			<line class="st2" x1="187.4" y1="135.9" x2="190.6" y2="141.2"/>
			<line class="st2" x1="195.9" y1="137.5" x2="199.8" y2="142.4"/>
			<line class="st2" x1="196.9" y1="144.5" x2="200.4" y2="149.7"/>
			<line class="st2" x1="196.5" y1="128.8" x2="200.8" y2="133.2"/>
			<line class="st2" x1="205.2" y1="128.5" x2="210" y2="132.5"/>
			<line class="st2" x1="207.7" y1="135.2" x2="212.3" y2="139.4"/>
			<line class="st2" x1="203.7" y1="119.9" x2="209" y2="123.3"/>
			<line class="st2" x1="212.2" y1="117.7" x2="217.7" y2="120.5"/>
			<line class="st2" x1="216.1" y1="123.6" x2="221.5" y2="126.7"/>
			<line class="st2" x1="208.9" y1="109.6" x2="214.7" y2="111.7"/>
			<line class="st2" x1="216.6" y1="105.5" x2="222.6" y2="107"/>
			<line class="st2" x1="221.7" y1="110.4" x2="227.6" y2="112.2"/>
			<line class="st2" x1="211.5" y1="98.4" x2="217.7" y2="99.2"/>
			<line class="st2" x1="218.1" y1="92.7" x2="224.3" y2="92.8"/>
			<line class="st2" x1="224.2" y1="96.4" x2="230.5" y2="96.8"/>
		</g>
		<g>
			<line class="st2" x1="172.1" y1="92.1" x2="178.3" y2="92"/>
			<line class="st2" x1="177.5" y1="87.2" x2="183.5" y2="85.3"/>
			<line class="st2" x1="184.2" y1="88.6" x2="190.4" y2="87.7"/>
			<line class="st2" x1="170.2" y1="86.2" x2="175.4" y2="82.7"/>
			<line class="st2" x1="172.2" y1="79.1" x2="176.2" y2="74.3"/>
			<line class="st2" x1="178.6" y1="76.7" x2="183.3" y2="72.5"/>
			<line class="st2" x1="165.5" y1="82.1" x2="168" y2="76.4"/>
			<line class="st2" x1="163.4" y1="75.1" x2="164.2" y2="69"/>
			<line class="st2" x1="167.5" y1="69.7" x2="169.2" y2="63.7"/>
			<line class="st2" x1="159.3" y1="81.3" x2="158.4" y2="75.1"/>
			<line class="st2" x1="153.8" y1="76.4" x2="151.2" y2="70.8"/>
			<line class="st2" x1="154.3" y1="69.7" x2="152.6" y2="63.7"/>
			<line class="st2" x1="153.7" y1="83.8" x2="149.6" y2="79.1"/>
			<line class="st2" x1="146.4" y1="82.7" x2="141.1" y2="79.3"/>
			<line class="st2" x1="143.2" y1="76.7" x2="138.5" y2="72.5"/>
			<line class="st2" x1="150.3" y1="89.1" x2="144.3" y2="87.2"/>
			<line class="st2" x1="143.5" y1="92" x2="137.2" y2="91.9"/>
			<line class="st2" x1="137.6" y1="88.6" x2="131.4" y2="87.6"/>
			<line class="st2" x1="149.7" y1="92.6" x2="143.5" y2="92.6"/>
			<line class="st2" x1="144.3" y1="97.5" x2="138.3" y2="99.3"/>
			<line class="st2" x1="137.6" y1="96.1" x2="131.4" y2="97"/>
			<line class="st2" x1="151.6" y1="98.5" x2="146.4" y2="101.9"/>
			<line class="st2" x1="149.6" y1="105.6" x2="145.6" y2="110.3"/>
			<line class="st2" x1="143.2" y1="108" x2="138.5" y2="112.1"/>
			<line class="st2" x1="156.3" y1="102.5" x2="153.8" y2="108.2"/>
			<line class="st2" x1="158.4" y1="109.6" x2="157.6" y2="115.7"/>
			<line class="st2" x1="154.3" y1="115" x2="152.6" y2="121"/>
			<line class="st2" x1="162.5" y1="103.4" x2="163.4" y2="109.6"/>
			<line class="st2" x1="168" y1="108.2" x2="170.6" y2="113.8"/>
			<line class="st2" x1="167.5" y1="115" x2="169.2" y2="121"/>
			<line class="st2" x1="168.1" y1="100.8" x2="172.2" y2="105.6"/>
			<line class="st2" x1="175.4" y1="101.9" x2="180.7" y2="105.3"/>
			<line class="st2" x1="178.6" y1="108" x2="183.3" y2="112.1"/>
			<line class="st2" x1="171.6" y1="95.6" x2="177.5" y2="97.5"/>
			<line class="st2" x1="178.3" y1="92.6" x2="184.5" y2="92.7"/>
			<line class="st2" x1="184.2" y1="96.1" x2="190.4" y2="97"/>
		</g>
		<g>
			<path class="st0" d="M142.5,109.4c-4.1-4.5-6.6-10.6-6.6-17.3c0-0.7,0-1.3,0.1-2l-1-0.8c-0.1,0.9-0.2,1.8-0.2,2.7
				c0,7.2,2.8,13.7,7.3,18.5L142.5,109.4z"/>
			<path class="st0" d="M167,67.3c6.7,1.7,12.3,6.2,15.7,12.1h1.2c-3.6-6.7-9.8-11.6-17.3-13.3L167,67.3z"/>
			<path class="st0" d="M139.1,79.5c3.5-6.3,9.6-10.9,16.8-12.4l0.4-1.2c-7.9,1.4-14.7,6.5-18.4,13.6H139.1z"/>
			<path class="st0" d="M170.5,115.7c-3,1.2-6.2,1.9-9.6,1.9c-3.1,0-6.2-0.6-8.9-1.6l-1,0.8c3,1.2,6.4,2,9.9,2
				c3.7,0,7.3-0.9,10.6-2.3L170.5,115.7z"/>
			<path class="st0" d="M186,90.8c0,0.4,0,0.9,0,1.2c0,6.2-2.2,11.9-5.8,16.4l0.4,1.2c4.1-4.7,6.5-10.8,6.5-17.6c0-0.7,0-1.3-0.1-2
				L186,90.8z"/>
		</g>
	</g>
	<g class="xeno-eye-brow">
		<path class="st0" d="M107,24.3C123.6,10,139.5,3.1,160.1,3.1"/>
		<path class="st0" d="M160,3c19.5,0,37.5,8.7,53.1,21.2"/>
		<path class="st2" d="M107,24.3C123.6,10,139.5,0,160.1,0"/>
		<path class="st2" d="M160-0.1c19.5,0,37.5,11.8,53.1,24.3"/>
	</g>
	<g class="xeno-sides">
		<path class="st0" d="M40,99.5c-4.9-2.6-10-4.7-15.3-6.2"/>
		<path class="st3" d="M51.4,106.8c-3.7-2.8-7.6-5.3-11.5-7.3"/>
		<path class="st0" d="M69.4,123.6c-6-6.7-12-12.2-18-16.8"/>
		<path class="st3" d="M81.2,137.8c-1-1.2-2.1-2.5-3.1-3.8c-2.9-3.7-5.8-7.2-8.7-10.4"/>
		<path class="st3" d="M160,181.6c-19.4,0-37.5-7.6-53.3-19.3"/>
		<path class="st3" d="M288.8,95.5c2.1-0.8,4.3-1.6,6.5-2.1"/>
		<path class="st0" d="M283.8,97.6c1.6-0.8,3.3-1.5,5-2.1"/>
		<path class="st0" d="M264.8,109.9c6.2-5.1,12.5-9.2,19-12.2"/>
		<path class="st3" d="M250.3,123.9c4.8-5.4,9.7-10.1,14.5-14.1"/>
		<path class="st3" d="M235.2,142c2.3-2.6,4.6-5.3,6.7-8c2.8-3.6,5.6-6.9,8.4-10.1"/>
		<path class="st3" d="M224.8,152.7c3.7-3.4,7.1-6.9,10.4-10.7"/>
		<path class="st3" d="M160,181.6c17.1,0,33.2-5.8,47.6-15.4"/>
		<path class="st0" d="M0,90.1c6.9,0,15.5-2.1,24.8-5.8"/>
		<path class="st0" d="M24.8,93.3C17,91.2,8.9,90.1,0,90.1"/>
		<path class="st2" d="M320,90.1c-6.9,0-15.5-2.1-24.8-5.8"/>
		<path class="st2" d="M302.9,91.6c5.5-1,11.1-1.5,17.1-1.5"/>
	</g>
	<g class="xeno-dots">
		<ellipse class="st0" cx="228.3" cy="139.2" rx="0.4" ry="0.4"/>
		<ellipse class="st0" cx="228.3" cy="35.9" rx="0.4" ry="0.4"/>
		<ellipse class="st0" cx="86" cy="35.9" rx="0.4" ry="0.4"/>
		<ellipse class="st0" cx="86" cy="138.9" rx="0.4" ry="0.4"/>
	</g>
</g>
</svg>
