<svg fill="none" height="59" viewBox="0 0 46 59" width="46" xmlns="http://www.w3.org/2000/svg"><g fill="#f0f26a"><path clip-rule="evenodd" d="m27 57.0325c-.2761 0-.5-.2239-.5-.5 0-.2762.2239-.5.5-.5 1.3732 0 2.5684-.6174 3.6335-1.724 1.0727-1.1146 1.9921-2.7063 2.7842-4.5882 1.5842-3.7636 2.605-8.5519 3.3767-12.6263.9743-5.1438 3.888-7.6009 6.2236-8.5615-2.3356-.9607-5.2493-3.4177-6.2236-8.5615-.7717-4.0745-1.7925-8.8627-3.3767-12.62637-.7921-1.88194-1.7115-3.47354-2.7842-4.58817-1.0651-1.10665-2.2603-1.72399-3.6335-1.72399-.2761 0-.5-.223857-.5-.499999s.2239-.5000003.5-.5000003c1.7125-.0000001 3.153.7826613 4.354 2.0305593 1.1933 1.23991 2.1704 2.9574 2.9854 4.89365 1.6301 3.87272 2.6665 8.75712 3.4376 12.82822 1.1886 6.2753 5.4076 8.0921 7.2564 8.2486.046.003.0905.0124.1326.0272.0717.0252.1355.0661.1877.1183.0514.0514.0918.1141.117.1846.0191.053.0294.1099.0293.1689.0002.1365-.0553.2622-.1464.3534-.0521.0523-.1159.0932-.1876.1183-.0421.0149-.0866.0242-.1326.0272-1.8488.1566-6.0678 1.9733-7.2564 8.2487-.7711 4.071-1.8075 8.9555-3.4376 12.8282-.815 1.9362-1.7921 3.6537-2.9854 4.8936-1.201 1.2479-2.6415 2.0306-4.354 2.0306z" fill-rule="evenodd"/><path d="m45.5 29.0325c.2761 0 .5-.2239.5-.5 0-.2762-.2239-.5-.5-.5zm-43-1c-.27614 0-.5.2238-.5.5 0 .2761.22386.5.5.5zm43 0h-43v1h43z"/><path clip-rule="evenodd" d="m20 .0324707c-.2761 0-.5.2238583-.5.5000003s.2239.499999.5.499999c1.3732 0 2.5684.61734 3.6335 1.72399 1.0727 1.11463 1.9921 2.70623 2.7842 4.58817 1.5842 3.76367 2.605 8.55187 3.3767 12.62637.9743 5.1438 3.888 7.6008 6.2236 8.5615-2.3356.9606-5.2493 3.4177-6.2236 8.5615-.7717 4.0744-1.7925 8.8627-3.3767 12.6263-.7921 1.8819-1.7115 3.4736-2.7842 4.5882-1.0651 1.1066-2.2603 1.724-3.6335 1.724-.2761 0-.5.2238-.5.5 0 .2761.2239.5.5.5.9141 0 1.7506-.223 2.5147-.6207-.0096.0387-.0147.0791-.0147.1207 0 .2761.2239.5.5.5 1.7125 0 3.153-.7827 4.354-2.0306 1.1933-1.2399 2.1704-2.9574 2.9854-4.8936 1.6301-3.8727 2.6665-8.7572 3.4376-12.8282 1.1886-6.2754 5.4076-8.0921 7.2564-8.2487.046-.003.0905-.0123.1326-.0271.1404-.0496.2537-.1604.3047-.3029.0191-.053.0294-.11.0293-.1689.0001-.059-.0102-.1159-.0293-.1689-.0503-.1401-.1618-.2527-.3047-.3029-.0421-.0148-.0866-.0242-.1326-.0272-1.8488-.1565-6.0678-1.9733-7.2564-8.2486-.7711-4.0711-1.8075-8.9555-3.4376-12.82822-.815-1.93625-1.7921-3.65374-2.9854-4.89365-1.201-1.247898-2.6415-2.0305595-4.354-2.0305594-.2761 0-.5.2238574-.5.5000004 0 .041603.0051.082023.0147.120666-.7641-.397686-1.6006-.6206664-2.5147-.6206663zm3.1509 55.9975293c1.3101-.0436 2.4567-.6556 3.4826-1.7215 1.0727-1.1146 1.9921-2.7063 2.7842-4.5882 1.5842-3.7636 2.605-8.5519 3.3767-12.6263.8362-4.4145 3.1008-6.8502 5.2025-8.0593-1.8673.1772-6.0391 2.011-7.2199 8.2454-.7711 4.071-1.8075 8.9555-3.4376 12.8282-.815 1.9362-1.7921 3.6537-2.9854 4.8936-.3771.3918-.7778.7378-1.2031 1.0281zm15.3201-27.3295c-.0135.0381-.0315.0739-.0533.1069.2032-.1027.4038-.1941.6003-.2749-.1965-.0808-.3971-.1723-.6003-.275.0218.033.0398.0688.0533.1069.019.053.0292.1098.029.1687 0 .0584-.0102.1148-.029.1674zm-15.3201-27.66553c.4253.29027.826.63623 1.2031 1.02806 1.1933 1.23991 2.1704 2.9574 2.9854 4.89365 1.6301 3.87272 2.6665 8.75712 3.4376 12.82822 1.1808 6.2343 5.3526 8.0681 7.2199 8.2453-2.1017-1.2091-4.3663-3.6447-5.2025-8.0592-.7717-4.0745-1.7925-8.8627-3.3767-12.62637-.7921-1.88194-1.7115-3.47354-2.7842-4.58817-1.0259-1.06593-2.1725-1.6779-3.4826-1.72149z" fill-rule="evenodd"/></g></svg>