<svg version="1.1" id="Layer_1" xmlns="http://www.w3.org/2000/svg" x="0" y="0" viewBox="0 0 1630.9 1431" xml:space="preserve"><style>.st0{fill:none;stroke:#ffa8a8;stroke-opacity:.19}</style><path class="st0" d="M736.1 692.5v-.5h-544L80.8 590.1l654.8 7.6h.6l-.1-.6-11.1-74.8L880.2 455v134.9h.5l543.6 7.8 143.6 94.3H880.2v643.4L736.1 1430V692.5z"/><path class="st0" d="M696.6 716.7V849l-390.7 249.9-110.4-71.3 501.1-310.9zM1424.1 1032.8l-103.5 66.2L930 849l-13-145.9 507.1 329.7zM287.1 144.1v-.5H66.3l-69.5-65 289.8 8.6h.6l-.1-.6-7-47.6 93.4-37.4 2 78.3v.5h.5l197.5 6.9 86 56.4h-286v340.2l-86.4 56.7V144.1zM1255.1 144.1v-.5h-220.8l-69.5-65 289.8 8.6h.6l-.1-.6-6.9-47.7 93.4-37.4 2 78.3v.5h.5l197.4 6.9 86 56.4h-286v340.2l-86.4 56.7V144.1z"/><path class="st0" d="M268.4 158.7v83.7L81.9 401.3l-70-53.9 256.5-188.7zM1236.3 158.7v83.7l-186.4 158.9-70-53.9 256.4-188.7zM619 359.4l-62.4 41.8-163.4-158.8-6.9-88.6L619 359.4zM1587 359.4l-62.4 41.8-163.4-158.9-6.9-88.6L1587 359.4zM949.4 53.9L929 115.8l-225.6 93.4 28.1-74.7 217.9-80.6zM949.4 263.1L928.9 325l-225.6 93.4 28.1-74.7 218-80.6z"/><path class="st0" d="M867.2 140.8l81.3 14.2-80.4 37.1-90.2-8.3 89.3-43zM867.2 367.3l81.3 14.2-80.4 37.1-90.2-8.3 89.3-43zM757 65.9l88.4 19.3-80.5 37.1-81.6-14.2L757 65.9zM757 275l88.4 19.3-80.5 37.1-81.6-14.2L757 275z"/></svg>
