<svg viewBox="0 0 1630.9 1431"><g fill="none" stroke="#ffa8a8" stroke-opacity=".19"><path d="m736.1 692.5v-.5h-544l-111.3-101.9 654.8 7.6h.6l-.1-.6-11.1-74.8 155.2-67.3v134.9h.5l543.6 7.8 143.6 94.3h-687.7v643.4l-144.1 94.6z"/><path d="m696.6 716.7v132.3l-390.7 249.9-110.4-71.3zm727.5 316.1-103.5 66.2-390.6-250-13-145.9zm-1137-888.7v-.5h-220.8l-69.5-65 289.8 8.6h.6l-.1-.6-7-47.6 93.4-37.4 2 78.3v.5h.5l197.5 6.9 86 56.4h-286v340.2l-86.4 56.7zm968 0v-.5h-220.8l-69.5-65 289.8 8.6h.6l-.1-.6-6.9-47.7 93.4-37.4 2 78.3v.5h.5l197.4 6.9 86 56.4h-286v340.2l-86.4 56.7z"/><path d="m268.4 158.7v83.7l-186.5 158.9-70-53.9zm967.9 0v83.7l-186.4 158.9-70-53.9zm-617.3 200.7-62.4 41.8-163.4-158.8-6.9-88.6zm968 0-62.4 41.8-163.4-158.9-6.9-88.6zm-637.6-305.5-20.4 61.9-225.6 93.4 28.1-74.7zm0 209.2-20.5 61.9-225.6 93.4 28.1-74.7z"/><path d="m867.2 140.8 81.3 14.2-80.4 37.1-90.2-8.3zm0 226.5 81.3 14.2-80.4 37.1-90.2-8.3zm-110.2-301.4 88.4 19.3-80.5 37.1-81.6-14.2zm0 209.1 88.4 19.3-80.5 37.1-81.6-14.2z"/></g></svg>