<svg version="1.1" id="Layer_1" xmlns="http://www.w3.org/2000/svg" x="0" y="0" viewBox="0 0 1382 1379" xml:space="preserve" enable-background="new 0 0 1382 1379"><style>.st1{fill:#fff}</style><defs><filter id="Adobe_OpacityMaskFilter" filterUnits="userSpaceOnUse" x="-4.8" y="-2" width="1387.8" height="1381.4"><feColorMatrix values="1 0 0 0 0 0 1 0 0 0 0 0 1 0 0 0 0 0 1 0"/></filter></defs><mask maskUnits="userSpaceOnUse" x="-4.8" y="-2" width="1387.8" height="1381.4" id="path-1-inside-1_1_"><path d="M92.6 322l-52.5-51.2H225l54.2 51.2H92.6z" fill="#fff" filter="url(#Adobe_OpacityMaskFilter)"/><path class="st1" d="M216.8 427.5v531.4l-74.9 51.2 3.7-582.5H58.3L6 375.7h331.6l58.7 51.8H216.8z"/><path class="st1" d="M396.4 734.4v-64.5L250 541.6v64.5l146.4 128.3zM772.1 1015.7l83-25.2v317.8l-83 33.5v-326.1zM1047.8 1015.7l-85.4-25.2v317.8l85.4 33.5v-326.1zM1067.3 1341.8l85.4-36.2v-41.8l-85.4 36.2v41.8zM664.7 1378.4l85.4-36.2v-41.8l-85.4 36.3v41.7zM328 807.5l-70.8 52v65.1l70.8-52v-65.1zM1089.2 1056.4h84.5v-24.5l42.3-17h-84.7l-42.2 17v24.5zM1194.1 1129.6h-21.4l-85.9-41.8.6-24h85.3v24l21.4 8.3v33.5zM435.4 0v946.6H1382V0H435.4zm408.9 629.8H591.8v-31.5h252.5v31.5zm0-284H591.8v-31.5h252.5v31.5zm381.3 284H970.4v-31.5h255.1v31.5h.1zm0-284H970.4v-31.5h255.1v31.5h.1zM92.6 322l-59.5-61.2 191.9 10 54.2 51.2H92.6z"/><path class="st1" d="M216.8 427.5v531.4l-74.9 51.2 3.7-582.5H58.3L0 366.7l337.6 9 58.7 51.8H216.8z"/><path class="st1" d="M396.4 734.4v-64.5L245 532.5l5 73.6 146.4 128.3zM767.1 1010.7l88-20.2v317.8l-83 33.5-5-331.1zM1047.8 1015.7l-92.4-31.2 7 323.8 85.4 33.5v-326.1zM1067.3 1341.8l85.4-36.2v-41.8l-91.4 33.2 6 44.8zM664.7 1378.4l85.4-36.2v-41.8l-91.4 32.3 6 45.7zM328 807.5l-76.8 48 6 69.1 70.8-52v-65.1zM1081.2 1056.4h92.5v-24.5l42.3-17h-84.7l-50.2 22v19.5zM1194.1 1129.6h-21.4l-92.9-41.8.6-24h92.3v24l21.4 8.3v33.5zM426.4 0v946.6H1382V0H426.4z"/></mask><path d="M279.2 322v1h2.5l-1.8-1.7-.7.7zm-62.4 105.5v-1h-1v1h1zm0 531.4l.6.8.4-.3v-.5h-1zm-74.9 51.1h-1v1.9l1.6-1.1-.6-.8zm3.7-582.5h1v-1h-1v1zm250.8 0v1h2.6l-2-1.8-.6.8zm0 306.9l-.7.8 1.7 1.5v-2.2h-1zM855 1308.3l.4.9.6-.2v-.7h-1zm192.8 33.5l-.4.9 1.4.5v-1.5h-1zm104.9-36.2l.4.9.6-.3v-.7h-1zm-402.6 36.6l.4.9.6-.3v-.7h-1zM328 872.6l.6.8.4-.3v-.5h-1zm845.8 159.3l-.4-.9-.6.2v.7h1zm42.3-17l.4.9-.4-1.9v1zm-22 114.7v1h1v-1h-1zm-21.4-41.8h-1v.7l.6.2.4-.9zm21.4 8.3h1v-.7l-.6-.2-.4.9zM224.4 271.5l54.2 51.2 1.4-1.5-54.2-51.2-1.4 1.5zm54.8 49.5H92.6v2h186.6v-2zm-63.4 106.5v531.4h2V427.5h-2zm.4 530.5l-74.9 51.2 1.1 1.7 74.9-51.2-1.1-1.7zm-70.6-531.5H58.3v2h87.3v-2zm191.3-50l58.7 51.8 1.3-1.5-58.6-51.8-1.4 1.5zm59.5 50H216.8v2h179.5v-2zm1 307.9v-64.5h-2v64.5h2zM249.3 606.9l146.4 128.2 1.3-1.5-146.4-128.2-1.3 1.5zM854 990.5v317.8h2V990.5h-2zm.6 316.9l-83 33.5.8 1.8 83-33.5-.8-1.8zm107.4 1.8l85.4 33.5.7-1.9-85.4-33.5-.7 1.9zm86.8 32.6v-326.1h-2v326.1h2zm18.9 1l85.4-36.2-.8-1.8-85.4 36.2.8 1.8zm86-37.2v-41.8h-2v41.8h2zm-488.6 73.8l85.4-36.2-.8-1.8-85.4 36.2.8 1.8zm86-37.2v-41.8h-2v41.8h2zM257.9 925.5l70.8-52-1.2-1.6-70.8 52 1.2 1.6zm71.1-52.9v-65.1h-2v65.1h2zm845.8 183.8v-24.5h-2v24.5h2zm-.7-23.6l42.3-17-.7-1.9-42.3 17 .7 1.9zm42-18.9h-84.7v2h84.7v-2zm-22 114.7h-21.4v2h21.4v-2zm-22.4-64.9v24h2v-24h-2zm.7 25l21.4 8.4.7-1.9-21.4-8.4-.7 1.9zm20.7 7.4v33.5h2v-33.5h-2zM1383 946.6V0h-2v946.6h2zM833.3 598.3v31.5h2v-31.5h-2zm0-284v31.5h2v-31.5h-2zm381.2 284v31.5h2v-31.5h-2zm0-284v31.5h2v-31.5h-2zM142.9 1010l3.7-582.6h-2l-3.7 582.6h2zM92.6 322l-1.4 1.4 2.8-2.8-1.4 1.4zm-52.4-51.2v-2h-4.9l3.5 3.4 1.4-1.4zm184.9 0v2l.1-4-.1 2zM58.3 427.5l-1.4 1.4 2.8-2.8-1.4 1.4zM6 375.7v-2H1.1l3.5 3.4 1.4-1.4zm331.6 0v2l.1-4-.1 2zm58.8 294.2l-1.3 1.5 2.7-3-1.4 1.5zM250 541.6l1.3-1.5-3.3-2.9v4.4h2zm0 64.5l-2 .1 4-.1h-2zm522.1 409.6l-.6-1.9-1.4.4v1.5h2zm82.9-25.2l.6 1.9-1-3.9.4 2zm-82.9 351.3h-2 4-2zm275.7-326.1l-.6 1.9 1.2-3.8-.6 1.9zm-85.4-25.2l.6-1.9-2.6-.8v2.7h2zm0 317.8h-2 4-2zm104.9 33.5l-2 .3 4-.3h-2zm85.4-78l.8 1.8-1.5-3.7.7 1.9zm-85.4 36.2l-.8-1.8-1.2.5v1.3h2zm-402.6 78.4l-2 .3 4-.3h-2zm85.4-78l.8 1.8-1.5-3.7.7 1.9zm-85.4 36.3l-.8-1.8-1.2.5v1.3h2zM328 807.5l1.2 1.6-2.2-3.3 1 1.7zm-70.7 52.1l-1.2-1.6-.8.6v1h2zm0 65.1l-2 .2 4-.2h-2zm831.9 131.7h-2v2h2v-2zm42.2-41.5l.8 1.8-1.5-3.7.7 1.9zm-42.2 17l-.7-1.8-1.3.5v1.3h2zm83.5 97.7l-.8 1.8 1.7-3.6-.9 1.8zm-85.9-41.8l-2-.1v1.3l1.2.6.8-1.8zm.6-24.1v-2h-2v2h2zM435.4 0v-2h-2v2h2zm0 946.6h-2v2h2v-2zm408.9-316.8v2h2v-2h-2zm-252.5 0h-2v2h2v-2zm0-31.5v-2h-2v2h2zm252.5 0h2v-2h-2v2zm0-252.5v2h2v-2h-2zm-252.5 0h-2v2h2v-2zm0-31.5v-2h-2v2h2zm252.5 0h2v-2h-2v2zm126.1 315.5h-2v2h2v-2zm0-31.5v-2h-2v2h2zm255.1 0h2v-2h-2v2zm0 31.5h-2v2h2v-2zm-255.1-284h-2v2h2v-2zm0-31.5v-2h-2v2h2zm255.1 0h2v-2h-2v2zm0 31.5h-2v2h2v-2zm-1192.3-85l.1-2-5.1-.3 3.6 3.7 1.4-1.4zM0 366.7l.1-2-4.9-.1 3.4 3.5 1.4-1.4zm245 165.8l1.3-1.5-3.7-3.3.3 5 2.1-.2zm522.1 478.2l-.4-2-1.6.4v1.6h2zm188.3-26.2l.6-1.9-2.7-.9.1 2.8h2zm105.9 312.5l-.7-1.9-1.5.6.2 1.6 2-.3zm-402.6 35.7l-.7-1.9-1.5.5.2 1.6 2-.2zM251.3 855.6l-1.1-1.7-1 .6.1 1.2 2-.1zm829.9 200.8h-2v2h2v-2zm0-19.5l-.8-1.8-1.2.5v1.3h2zm-1.4 50.9l-2-.1v1.3l1.2.5.8-1.7zm.6-24.1v-2h-2v2h2zM426.4 0v-2h-2v2h2zm0 946.6h-2v2h2v-2zM94 320.6l-52.5-51.2-2.8 2.9 52.5 51.2 2.8-2.9zm-53.8-47.8h184.9v-4H40.2v4zm19.5 153.3L7.4 374.3l-2.8 2.8 52.3 51.8 2.8-2.8zM6 377.7h331.6v-4H6v4zm391.7 290.7L251.3 540.1l-2.6 3L395 671.4l2.7-3zM248 541.6v64.5h4v-64.5h-4zm524.7 476l83-25.2-1.2-3.8-83 25.2 1.2 3.8zm1.4 324.2v-326.1h-4v326.1h4zm274.2-328l-85.4-25.2-1.1 3.8 85.4 25.2 1.1-3.8zm-87.9-23.3v317.8h4V990.5h-4zm191.5 271.4l-85.4 36.2 1.6 3.7 85.4-36.2-1.6-3.7zm-86.6 38.1v41.8h4V1300h-4zm-316-1.5l-85.4 36.3 1.6 3.7 85.4-36.3-1.6-3.7zm-86.6 38.2v41.8h4v-41.8h-4zM326.9 805.9l-70.8 52 2.4 3.2 70.8-52-2.4-3.2zm-71.6 53.7v65.1h4v-65.1h-4zm833.9 198.8h84.5v-4h-84.5v4zm41.5-45.3l-42.2 17 1.5 3.7 42.2-17-1.5-3.7zm-43.5 18.8v24.5h4v-24.5h-4zm86.4 95.9l-85.9-41.8-1.8 3.6 85.9 41.8 1.8-3.6zm-84.8-40l.6-24-4-.1-.6 24 4 .1zm-1.4-22.1h85.3v-4h-85.3v4zM433.4 0v946.6h4V0h-4zm2 948.6H1382v-4H435.4v4zM1382-2H435.4v4H1382v-4zM844.3 627.8H591.8v4h252.5v-4zm-250.5 2v-31.5h-4v31.5h4zm-2-29.5h252.5v-4H591.8v4zm250.5-2v31.5h4v-31.5h-4zm2-254.5H591.8v4h252.5v-4zm-250.5 2v-31.5h-4v31.5h4zm-2-29.5h252.5v-4H591.8v4zm250.5-2v31.5h4v-31.5h-4zm383.3 313.5H970.4v4h255.2v-4zm-253.2 2v-31.5h-4v31.5h4zm-2-29.5h255.1v-4H970.4v4zm253.1-2v31.5h4v-31.5h-4zm2 33.5h.2v-4h-.2v4zm.1-288H970.4v4h255.2v-4zm-253.2 2v-31.5h-4v31.5h4zm-2-29.5h255.1v-4H970.4v4zm253.1-2v31.5h4v-31.5h-4zm2 33.5h.2v-4h-.2v4zM94.1 320.6l-59.5-61.2-2.9 2.8 59.5 61.2 2.9-2.8zm-61-57.8l191.9 10 .2-4-191.9-10-.2 4zm26.7 163.3L1.4 365.3l-2.9 2.8 58.3 60.8 3-2.8zM-.1 368.7l337.6 9 .1-4-337.6-9-.1 4zm397.8 299.7L246.3 531l-2.7 3L395 671.3l2.7-2.9zM243 532.6l5 73.6 4-.3-5-73.6-4 .3zm524.5 480.1l88-20.2-.9-3.9-88 20.2.9 3.9zm6.6 329.1l-5-331.1-4 .1 5 331.1 4-.1zm274.3-328L956 982.6l-1.3 3.8 92.4 31.2 1.3-3.8zm-95-29.2l7 323.8 4-.1-7-323.8-4 .1zm198.6 277.3l-91.4 33.2 1.4 3.8 91.4-33.2-1.4-3.8zm-92.7 35.4l6 44.8 4-.5-6-44.8-4 .5zm-309.9 1.2l-91.4 32.3 1.3 3.8 91.4-32.3-1.3-3.8zm-92.7 34.4l6 45.8 4-.5-6-45.8-4 .5zM327 805.8l-76.8 48 2.1 3.4 76.8-48-2.1-3.4zm-77.7 49.9l6 69.1 4-.3-6-69.1-4 .3zm831.9 202.7h92.5v-4h-92.5v4zm49.4-45.3l-50.2 22 1.6 3.7 50.2-22-1.6-3.7zm-51.4 23.8v19.5h4v-19.5h-4zm94.3 90.9l-92.9-41.8-1.7 3.6 92.9 41.8 1.7-3.6zm-91.7-40l.6-24-4-.1-.6 24 4 .1zm-1.4-22.1h92.3v-4h-92.3v4zM424.4 0v946.6h4V0h-4zm2 948.6H1382v-4H426.4v4zM1382-2H426.4v4H1382v-4z" mask="url(#path-1-inside-1_1_)" fill="#ffa8a8" fill-opacity=".19"/></svg>
