<svg fill="none" height="1573" viewBox="0 0 1440 1573" width="1440" xmlns="http://www.w3.org/2000/svg" xmlns:xlink="http://www.w3.org/1999/xlink"><filter id="a" color-interpolation-filters="sRGB" filterUnits="userSpaceOnUse" height="1572.05" width="1518.34" x="-38.7715" y="0"><feFlood flood-opacity="0" result="BackgroundImageFix"/><feColorMatrix in="SourceAlpha" type="matrix" values="0 0 0 0 0 0 0 0 0 0 0 0 0 0 0 0 0 0 127 0"/><feOffset/><feGaussianBlur stdDeviation="15"/><feColorMatrix type="matrix" values="0 0 0 0 1 0 0 0 0 0.658824 0 0 0 0 0.658824 0 0 0 0.14 0"/><feBlend in2="BackgroundImageFix" mode="normal" result="effect1_dropShadow"/><feBlend in="SourceGraphic" in2="effect1_dropShadow" mode="normal" result="shape"/></filter><g filter="url(#a)" stroke="#ffa8a8" stroke-opacity=".19"><path d="m680.59 1029.44v-.5h-.5-490.704l-98.6152-109.048h589.3192.5v-.5-52.934l138.275-53.024v105.958.5h.5 520.795l108.21 109.048h-629.005-.5v.5 441.18l-138.275 70.61z"/><path d="m820.468 416.267h-.5v.5 365.623l-138.274 56.256v-421.879-.5h-.5-612.4743l-76.2634-74.463h1286.0337l71.49 74.463z"/><path d="m682.823 214.259.117.069h.136 32.349v108.687h-32.215l-131.018-75.589-.116-.066h-.134-32.348v-110.127h32.212z"/><path d="m652.794 431.099v104.075l-352.596 196.91-93.221-52.037z"/><path d="m652.794 1044.82v117.91l-352.57 200.84-93.336-64.8z"/><path d="m1296.53 1298.77-93.33 64.8-352.573-200.84v-117.91z"/><path d="m1187.81 430.748h162.05l-76.8 70.155h-162.18z"/><path d="m652.797 719.158v92.696l-133.203-74.462v-92.826z"/><path d="m784.345 323.015h-32.134v-104.724h32.24.13l.114-.063 32.869-18.293.257-.143v-.294-17.793h130.221v17.793 50.771z"/><path d="m956.988 118.237v35.784h-131.897v-17.774-.296l-.26-.143-33.289-18.275-.112-.061h-.129-498.388l-112.339-86.972h646.616z"/></g><path clip-rule="evenodd" d="m824.937 152.707v-17.275l-33.289-18.275-484.799.855-112.339-86.972-1.291-1h1.633 632.838l129.284 87.972v34.695 1h-1-130.037-1zm-517.747-35.696-111.046-85.971h631.238l128.592 87.501v34.166h-130.037v-17.275-.592l-.519-.285-33.289-18.275-.226-.124-.257.001zm375.097 98.712-.236-.141-130.898-77.809h-37.594v114.257h38.729.253l.223.12 130.052 70.405h31.595v-106.832h-31.849zm32.124-1h1v1 106.832 1h-1-31.849l-130.274-70.525h-38.729-1v-1-114.257-1h1 37.869l131.134 77.95zm105.543 200.229h-1v1 365.295l-132.974 55.823v-421.118-1.003l-1.003.003-601.9474 1.709-75.24146-73.466 1269.97186-1.706 70.53 73.463zm-133.974 423.203 133.974-56.243v-364.96-1h1 528.296 1.39l-.96-1-71.49-74.463-1271.42462 1.708-1.42944.002 1.02276.998 76.2648 74.465 601.3565-1.707 1-.003v1 420.538 1.085zm3.197 191.325v-1h-1.001l-484.462.85-97.709-108.043h582.172 1v-1-52.607l128.674-52.59v105.197 1h1 520.589l107.21 108.043-627.797-.85h-1.002v1 441.72l-128.674 64.99zm-584.521-108.193 98.615 109.043 483.906-.85h1v1 506.21 1.12l1-.5 129.674-65.49v-441.34-.98-.02h1l627.789.85h1.41l-.99-1-108.2-109.043h-520.009-1v-1-104.605-1.081l-1 .409-129.674 52.999v52.278 1h-1-582.077-1.348zm547.125-489.327v102.96l-352.135 196.653-109.19-51.544zm1 103.547-353.097 197.19-110.323-52.079-1.125-.531 1.096-.589 462.449-248.673 1-.538v1.136zm-1 626.973v-116.73l-429.968 254 78.826 63.24zm-351.237 201.72 352.237-201.14v-117.9-1.16l-1 .59-430.802 254.49-.92.54.834.67zm993.676-65.35-91.56 63.31-345.31-200.65-5.478-114.78zm-91.51 64.49-346.333-201.24-5.534-115.96-.056-1.18 1.029.59 443.314 252.67.96.55-.91.63zm145.35-932.198h-1.49-144.85l-76.93 70.155-1.1 1h1.49 144.98l76.8-70.155zm-2.58 1h-143.37l-75.84 69.155h143.5zm-692.698 378.586v1.163l-1-.595-128.042-76.137-4.244-89.375-.056-1.176 1.028.573 132.314 73.723zm-1-91.236v90.641l-127.068-75.558-4.19-88.218zm146.776-501.661h-50.662-1v1 102.869 1h1 36.901l163.23-72.067v-51.095-17.294-1h-1-114.599-1v1 17.294zm33.87-35.587v17.294.588l-.514.286-32.87 18.293-.226.126h-.26-50.662v102.869h36.69l162.441-71.718v-50.444-17.294z" fill="#ffa8a8" fill-opacity=".19" fill-rule="evenodd"/></svg>