<svg fill="none" height="264" viewBox="0 0 384 264" width="384" xmlns="http://www.w3.org/2000/svg" xmlns:xlink="http://www.w3.org/1999/xlink"><filter id="a" color-interpolation-filters="sRGB" filterUnits="userSpaceOnUse" height="264" width="384" x="0" y="0"><feFlood flood-opacity="0" result="BackgroundImageFix"/><feColorMatrix in="SourceAlpha" type="matrix" values="0 0 0 0 0 0 0 0 0 0 0 0 0 0 0 0 0 0 127 0"/><feOffset dy="4"/><feGaussianBlur stdDeviation="2"/><feColorMatrix type="matrix" values="0 0 0 0 0 0 0 0 0 0 0 0 0 0 0 0 0 0 0.25 0"/><feBlend in2="BackgroundImageFix" mode="normal" result="effect1_dropShadow"/><feBlend in="SourceGraphic" in2="effect1_dropShadow" mode="normal" result="shape"/></filter><g fill="#c4c4c4" filter="url(#a)"><path d="m230.571 0h94.156c1.688 0 2.533 2.04239 1.34 3.23704l-160.411 160.55296c-.355.356-.837.556-1.34.556h-94.1557c-1.6881 0-2.5336-2.043-1.3401-3.237l160.4108-160.553444c.355-.355699.837-.555556 1.34-.555556z"/><path d="m274.787 63.2099h72.047c1.689 0 2.534 2.0424 1.34 3.237l-160.41 160.5531c-.355.356-.837.556-1.34.556h-72.048c-1.688 0-2.534-2.043-1.34-3.237l160.41-160.5536c.356-.3557.838-.5555 1.341-.5555z"/><path d="m321.845 113.778h56.256c1.688 0 2.534 2.042 1.34 3.237l-138.302 138.429c-.356.356-.838.556-1.34.556h-56.257c-1.688 0-2.534-2.042-1.34-3.237l138.303-138.43c.355-.355.837-.555 1.34-.555z"/><path d="m134.244 48.9877h30.99c1.689 0 2.534 2.0423 1.34 3.237l-125.6692 122.6273c-.3553.356-.8374.555-1.34.555h-30.99057c-1.68814 0-2.53365-2.042-1.34006-3.237l125.66983-122.6268c.355-.3557.837-.5555 1.34-.5555z"/></g></svg>