<svg width="1440" height="1431" viewBox="0 0 1440 1431" fill="none" xmlns="http://www.w3.org/2000/svg">
<path d="M640.628 692.453V691.953H640.128H96.6148L-14.6966 590.076L640.123 597.668L640.709 597.675L640.623 597.095L629.551 522.331L784.739 455.003V589.376V589.868L785.231 589.876L1328.79 597.666L1472.38 691.953H785.239H784.739V692.453V1335.35L640.628 1429.98V692.453Z" stroke="#FFA8A8" stroke-opacity="0.19"/>
<path d="M601.096 716.748V849.028L210.364 1098.95L99.935 1027.68L601.096 716.748Z" stroke="#FFA8A8" stroke-opacity="0.19"/>
<path d="M1328.62 1032.75L1225.16 1098.95L834.526 849.013L821.589 703.099L1328.62 1032.75Z" stroke="#FFA8A8" stroke-opacity="0.19"/>
<path d="M191.604 144.129V143.629H191.104H-29.1661L-98.6842 78.6481L191.09 87.2672L191.685 87.2849L191.599 86.6954L184.656 38.9644L278.029 1.52067L280.011 79.8533L280.023 80.3239L280.493 80.3404L477.946 87.2622L563.984 143.629H278.511H278.011V144.129V483.813L191.604 540.518V144.129Z" stroke="#FFA8A8" stroke-opacity="0.19"/>
<path d="M1159.6 144.129V143.629H1159.1H938.827L869.309 78.6481L1159.08 87.2672L1159.68 87.2849L1159.59 86.6954L1152.65 38.9644L1246.02 1.52067L1248 79.8533L1248.02 80.3239L1248.49 80.3404L1445.94 87.2622L1531.98 143.629H1246.5H1246V144.129V483.813L1159.6 540.518V144.129Z" stroke="#FFA8A8" stroke-opacity="0.19"/>
<path d="M172.897 158.741V242.391L-13.5347 401.276L-83.5164 347.372L172.897 158.741Z" stroke="#FFA8A8" stroke-opacity="0.19"/>
<path d="M1140.89 158.741V242.391L954.458 401.276L884.477 347.372L1140.89 158.741Z" stroke="#FFA8A8" stroke-opacity="0.19"/>
<path d="M523.552 359.431L461.165 401.279L297.753 242.395L290.864 153.75L523.552 359.431Z" stroke="#FFA8A8" stroke-opacity="0.19"/>
<path d="M1491.55 359.431L1429.16 401.279L1265.75 242.395L1258.86 153.75L1491.55 359.431Z" stroke="#FFA8A8" stroke-opacity="0.19"/>
<path d="M853.895 53.9396L833.457 115.82L607.825 209.172L635.967 134.467L853.895 53.9396Z" stroke="#FFA8A8" stroke-opacity="0.19"/>
<path d="M853.895 263.102L833.457 324.982L607.825 418.334L635.967 343.629L853.895 263.102Z" stroke="#FFA8A8" stroke-opacity="0.19"/>
<path d="M771.756 140.834L853.031 155.063L772.6 192.125L682.377 183.83L771.756 140.834Z" stroke="#FFA8A8" stroke-opacity="0.19"/>
<path d="M771.756 367.313L853.031 381.542L772.6 418.604L682.377 410.308L771.756 367.313Z" stroke="#FFA8A8" stroke-opacity="0.19"/>
<path d="M661.537 65.8846L749.905 85.2154L669.392 122.352L587.756 108.122L661.537 65.8846Z" stroke="#FFA8A8" stroke-opacity="0.19"/>
<path d="M661.537 275.047L749.905 294.377L669.392 331.514L587.756 317.284L661.537 275.047Z" stroke="#FFA8A8" stroke-opacity="0.19"/>
</svg>
