<svg width="29" height="29" viewBox="0 0 29 29" fill="none" xmlns="http://www.w3.org/2000/svg">
  <g filter="url(#filter0_d)">
    <path d="M1.37086 22.1235V1.12379H22.3706V22.1235H1.37086Z" stroke="#E82F5C" stroke-width="0.269062" />
  </g>
  <mask id="path-2-inside-1" fill="white">
    <path d="M13.1059 6.0872L10.3877 7.41917L10.8504 6.34057L13.3554 5.19336L13.1059 6.0872Z" />
  </mask>
  <path
    d="M13.1059 6.0872L13.6978 7.29526L14.2394 7.02988L14.4016 6.44901L13.1059 6.0872ZM10.3877 7.41917L9.15136 6.88875L7.72028 10.2244L10.9797 8.62723L10.3877 7.41917ZM10.8504 6.34057L10.2903 5.11743L9.81863 5.33343L9.61411 5.81016L10.8504 6.34057ZM13.3554 5.19336L14.6512 5.55517L15.4308 2.76324L12.7953 3.97022L13.3554 5.19336ZM12.5139 4.87914L9.79571 6.2111L10.9797 8.62723L13.6978 7.29526L12.5139 4.87914ZM11.624 7.94958L12.0868 6.87099L9.61411 5.81016L9.15136 6.88875L11.624 7.94958ZM11.4106 7.56371L13.9156 6.4165L12.7953 3.97022L10.2903 5.11743L11.4106 7.56371ZM12.0597 4.83155L11.8101 5.72539L14.4016 6.44901L14.6512 5.55517L12.0597 4.83155Z"
    fill="#E82F5C" mask="url(#path-2-inside-1)" />
  <path
    d="M11.4592 11.2917V10.6191H10.7865H4.55913L4.55347 10.6132H10.7865H11.4592V9.94057V9.31367L11.8522 9.08457V9.94057V10.6132H12.5248H18.8072L18.8148 10.6191H12.5248H11.8522V11.2917V20.083L11.4592 20.3885V11.2917Z"
    stroke="#E82F5C" stroke-width="1.34531" />
  <path d="M9.46791 12.9765V13.1815L5.4543 16.2204L5.31886 16.1177L9.46791 12.9765Z" stroke="#E82F5C"
    stroke-width="1.34531" />
  <path d="M17.9297 16.1174L17.7935 16.2206L13.7811 13.1816V12.9765L17.9297 16.1174Z" stroke="#E82F5C"
    stroke-width="1.34531" />
  <mask id="path-7-inside-2" fill="white">
    <path
      d="M17.0307 3.51625H14.3897L13.6035 2.70285H17.0307V2.09415L18.0795 1.48364V2.70285H20.4687L21.5175 3.51625H18.0795V8.33691L17.0307 9.15031V3.51625Z" />
  </mask>
  <path
    d="M17.0307 3.51625H18.376V2.17094H17.0307V3.51625ZM14.3897 3.51625L13.4224 4.4512L13.819 4.86156H14.3897V3.51625ZM13.6035 2.70285V1.35754H10.4322L12.6362 3.6378L13.6035 2.70285ZM17.0307 2.70285V4.04816H18.376V2.70285H17.0307ZM17.0307 2.09415L16.3539 0.931464L15.6854 1.3206V2.09415H17.0307ZM18.0795 1.48364H19.4248V-0.856051L17.4028 0.320958L18.0795 1.48364ZM18.0795 2.70285H16.7342V4.04816H18.0795V2.70285ZM20.4687 2.70285L21.2931 1.63977L20.9292 1.35754H20.4687V2.70285ZM21.5175 3.51625V4.86156H25.4474L22.3419 2.45317L21.5175 3.51625ZM18.0795 3.51625V2.17094H16.7342V3.51625H18.0795ZM18.0795 8.33691L18.904 9.39999L19.4248 8.99605V8.33691H18.0795ZM17.0307 9.15031H15.6854V11.8961L17.8551 10.2134L17.0307 9.15031ZM17.0307 2.17094H14.3897V4.86156H17.0307V2.17094ZM15.357 2.5813L14.5708 1.76789L12.6362 3.6378L13.4224 4.4512L15.357 2.5813ZM13.6035 4.04816H17.0307V1.35754H13.6035V4.04816ZM18.376 2.70285V2.09415H15.6854V2.70285H18.376ZM17.7075 3.25683L18.7563 2.64633L17.4028 0.320958L16.3539 0.931464L17.7075 3.25683ZM16.7342 1.48364V2.70285H19.4248V1.48364H16.7342ZM18.0795 4.04816H20.4687V1.35754H18.0795V4.04816ZM19.6442 3.76593L20.693 4.57933L22.3419 2.45317L21.2931 1.63977L19.6442 3.76593ZM21.5175 2.17094H18.0795V4.86156H21.5175V2.17094ZM16.7342 3.51625V8.33691H19.4248V3.51625H16.7342ZM17.2551 7.27383L16.2062 8.08723L17.8551 10.2134L18.904 9.39999L17.2551 7.27383ZM18.376 9.15031V3.51625H15.6854V9.15031H18.376Z"
    fill="#E82F5C" mask="url(#path-7-inside-2)" />
  <mask id="path-9-inside-3" fill="white">
    <path d="M16.5713 4.91295L14.3322 7.17184L13.6035 6.5701L16.5713 3.70947V4.91295Z" />
  </mask>
  <path
    d="M16.5713 4.91295L17.5267 5.86002L17.9166 5.46672V4.91295H16.5713ZM14.3322 7.17184L13.4756 8.20916L14.4228 8.99141L15.2876 8.11891L14.3322 7.17184ZM13.6035 6.5701L12.6699 5.6015L11.5846 6.64761L12.7469 7.60743L13.6035 6.5701ZM16.5713 3.70947H17.9166V0.544182L15.6376 2.74088L16.5713 3.70947ZM15.6158 3.96587L13.3767 6.22476L15.2876 8.11891L17.5267 5.86002L15.6158 3.96587ZM15.1888 6.13451L14.4601 5.53277L12.7469 7.60743L13.4756 8.20916L15.1888 6.13451ZM14.5372 7.5387L17.5049 4.67807L15.6376 2.74088L12.6699 5.6015L14.5372 7.5387ZM15.2259 3.70947V4.91295H17.9166V3.70947H15.2259Z"
    fill="#E82F5C" mask="url(#path-9-inside-3)" />
  <mask id="path-11-inside-4" fill="white">
    <path d="M18.3027 4.91295L20.2653 7.17184L21.0232 6.5701L18.3027 3.70947V4.91295Z" />
  </mask>
  <path
    d="M18.3027 4.91295H16.9574V5.41574L17.2872 5.79529L18.3027 4.91295ZM20.2653 7.17184L19.2498 8.05418L20.0939 9.02577L21.1019 8.2254L20.2653 7.17184ZM21.0232 6.5701L21.8597 7.62367L23.0117 6.70895L21.998 5.64301L21.0232 6.5701ZM18.3027 3.70947L19.2776 2.78238L16.9574 0.342635V3.70947H18.3027ZM17.2872 5.79529L19.2498 8.05418L21.2809 6.2895L19.3183 4.0306L17.2872 5.79529ZM21.1019 8.2254L21.8597 7.62367L20.1866 5.51653L19.4288 6.11827L21.1019 8.2254ZM21.998 5.64301L19.2776 2.78238L17.3279 4.63656L20.0483 7.49719L21.998 5.64301ZM16.9574 3.70947V4.91295H19.648V3.70947H16.9574Z"
    fill="#E82F5C" mask="url(#path-11-inside-4)" />
  <mask id="path-13-inside-5" fill="white">
    <path
      d="M5.40666 3.51698H2.76567L1.97949 2.70358H5.40666V2.09488L6.4537 1.48438V2.70358H8.84463L9.89347 3.51698H6.4537V8.33764L5.40666 9.15104V3.51698Z" />
  </mask>
  <path
    d="M5.40666 3.51698H6.75197V2.17167H5.40666V3.51698ZM2.76567 3.51698L1.79835 4.45193L2.19497 4.86229H2.76567V3.51698ZM1.97949 2.70358V1.35827H-1.19178L1.01217 3.63853L1.97949 2.70358ZM5.40666 2.70358V4.04889H6.75197V2.70358H5.40666ZM5.40666 2.09488L4.72902 0.932702L4.06135 1.322V2.09488H5.40666ZM6.4537 1.48438H7.79901V-0.85734L5.77606 0.322196L6.4537 1.48438ZM6.4537 2.70358H5.1084V4.04889H6.4537V2.70358ZM8.84463 2.70358L9.66908 1.6405L9.30516 1.35827H8.84463V2.70358ZM9.89347 3.51698V4.86229H13.8234L10.7179 2.4539L9.89347 3.51698ZM6.4537 3.51698V2.17167H5.1084V3.51698H6.4537ZM6.4537 8.33764L7.27904 9.40003L7.79901 8.99608V8.33764H6.4537ZM5.40666 9.15104H4.06135V11.8997L6.232 10.2134L5.40666 9.15104ZM5.40666 2.17167H2.76567V4.86229H5.40666V2.17167ZM3.733 2.58203L2.94682 1.76863L1.01217 3.63853L1.79835 4.45193L3.733 2.58203ZM1.97949 4.04889H5.40666V1.35827H1.97949V4.04889ZM6.75197 2.70358V2.09488H4.06135V2.70358H6.75197ZM6.0843 3.25706L7.13135 2.64655L5.77606 0.322196L4.72902 0.932702L6.0843 3.25706ZM5.1084 1.48438V2.70358H7.79901V1.48438H5.1084ZM6.4537 4.04889H8.84463V1.35827H6.4537V4.04889ZM8.02018 3.76666L9.06902 4.58006L10.7179 2.4539L9.66908 1.6405L8.02018 3.76666ZM9.89347 2.17167H6.4537V4.86229H9.89347V2.17167ZM5.1084 3.51698V8.33764H7.79901V3.51698H5.1084ZM5.62837 7.27524L4.58133 8.08864L6.232 10.2134L7.27904 9.40003L5.62837 7.27524ZM6.75197 9.15104V3.51698H4.06135V9.15104H6.75197Z"
    fill="#E82F5C" mask="url(#path-13-inside-5)" />
  <mask id="path-15-inside-6" fill="white">
    <path d="M5.1943 4.91295L2.95523 7.17184L2.22656 6.5701L5.1943 3.70947V4.91295Z" />
  </mask>
  <path
    d="M5.1943 4.91295L6.14976 5.86002L6.53961 5.46672V4.91295H5.1943ZM2.95523 7.17184L2.09861 8.20917L3.04586 8.9914L3.91069 8.11891L2.95523 7.17184ZM2.22656 6.5701L1.29293 5.6015L0.207649 6.64761L1.36994 7.60743L2.22656 6.5701ZM5.1943 3.70947H6.53961V0.544184L4.26067 2.74088L5.1943 3.70947ZM4.23885 3.96587L1.99977 6.22476L3.91069 8.11891L6.14976 5.86002L4.23885 3.96587ZM3.81186 6.13451L3.08319 5.53277L1.36994 7.60743L2.09861 8.20917L3.81186 6.13451ZM3.1602 7.5387L6.12794 4.67807L4.26067 2.74088L1.29293 5.6015L3.1602 7.5387ZM3.849 3.70947V4.91295H6.53961V3.70947H3.849Z"
    fill="#E82F5C" mask="url(#path-15-inside-6)" />
  <mask id="path-17-inside-7" fill="white">
    <path d="M6.67871 4.91295L8.64132 7.17184L9.39914 6.5701L6.67871 3.70947V4.91295Z" />
  </mask>
  <path
    d="M6.67871 4.91295H5.3334V5.41574L5.66317 5.79529L6.67871 4.91295ZM8.64132 7.17184L7.62578 8.05418L8.46993 9.02577L9.47789 8.22541L8.64132 7.17184ZM9.39914 6.5701L10.2357 7.62367L11.3877 6.70895L10.374 5.64301L9.39914 6.5701ZM6.67871 3.70947L7.65358 2.78238L5.3334 0.342638V3.70947H6.67871ZM5.66317 5.79529L7.62578 8.05418L9.65686 6.28949L7.69425 4.0306L5.66317 5.79529ZM9.47789 8.22541L10.2357 7.62367L8.56257 5.51653L7.80475 6.11827L9.47789 8.22541ZM10.374 5.64301L7.65358 2.78238L5.70384 4.63656L8.42427 7.49719L10.374 5.64301ZM5.3334 3.70947V4.91295H8.02402V3.70947H5.3334Z"
    fill="#E82F5C" mask="url(#path-17-inside-7)" />
  <mask id="path-19-inside-8" fill="white">
    <path d="M13.3554 6.88334L12.3731 7.41918L11.377 7.21309L12.361 6.67725L13.3554 6.88334Z" />
  </mask>
  <path
    d="M13.3554 6.88334L13.9997 8.06438L17.2166 6.30968L13.6285 5.56602L13.3554 6.88334ZM12.3731 7.41918L12.1005 8.73659L12.5839 8.8366L13.0173 8.60022L12.3731 7.41918ZM11.377 7.21309L10.7336 6.03157L7.51001 7.78683L11.1044 8.5305L11.377 7.21309ZM12.361 6.67725L12.6341 5.35993L12.151 5.25981L11.7177 5.49573L12.361 6.67725ZM12.7112 5.7023L11.7289 6.23814L13.0173 8.60022L13.9997 8.06438L12.7112 5.7023ZM12.6456 6.10177L11.6495 5.89568L11.1044 8.5305L12.1005 8.73659L12.6456 6.10177ZM12.0203 8.3946L13.0044 7.85876L11.7177 5.49573L10.7336 6.03157L12.0203 8.3946ZM12.088 7.99456L13.0824 8.20065L13.6285 5.56602L12.6341 5.35993L12.088 7.99456Z"
    fill="#E82F5C" mask="url(#path-19-inside-8)" />
  <mask id="path-21-inside-9" fill="white">
    <path d="M12.1201 5.64677L11.1377 6.18261L10.1416 5.97651L11.1257 5.44067L12.1201 5.64677Z" />
  </mask>
  <path
    d="M12.1201 5.64677L12.7643 6.82781L15.9812 5.07311L12.3931 4.32945L12.1201 5.64677ZM11.1377 6.18261L10.8651 7.50002L11.3486 7.60003L11.7819 7.36365L11.1377 6.18261ZM10.1416 5.97651L9.49826 4.795L6.27467 6.55026L9.86903 7.29392L10.1416 5.97651ZM11.1257 5.44067L11.3987 4.12336L10.9156 4.02324L10.4824 4.25916L11.1257 5.44067ZM11.4759 4.46573L10.4935 5.00157L11.7819 7.36365L12.7643 6.82781L11.4759 4.46573ZM11.4103 4.8652L10.4142 4.65911L9.86903 7.29392L10.8651 7.50002L11.4103 4.8652ZM10.7849 7.15803L11.769 6.62219L10.4824 4.25916L9.49826 4.795L10.7849 7.15803ZM10.8527 6.75799L11.8471 6.96408L12.3931 4.32945L11.3987 4.12336L10.8527 6.75799Z"
    fill="#E82F5C" mask="url(#path-21-inside-9)" />
  <mask id="path-23-inside-10" fill="white">
    <path d="M13.1059 3.12038L10.3877 4.45164L10.8504 3.37395L13.3554 2.22583L13.1059 3.12038Z" />
  </mask>
  <path
    d="M13.1059 3.12038L13.6976 4.32856L14.2395 4.06315L14.4017 3.48192L13.1059 3.12038ZM10.3877 4.45164L9.15153 3.92084L7.71921 7.25656L10.9794 5.65982L10.3877 4.45164ZM10.8504 3.37395L10.2899 2.15098L9.81876 2.36692L9.61427 2.84316L10.8504 3.37395ZM13.3554 2.22583L14.6513 2.58738L15.4304 -0.205063L12.7949 1.00286L13.3554 2.22583ZM12.5141 1.91219L9.79597 3.24345L10.9794 5.65982L13.6976 4.32856L12.5141 1.91219ZM11.6239 4.98243L12.0866 3.90475L9.61427 2.84316L9.15153 3.92084L11.6239 4.98243ZM11.411 4.59693L13.916 3.4488L12.7949 1.00286L10.2899 2.15098L11.411 4.59693ZM12.0596 1.86428L11.81 2.75883L14.4017 3.48192L14.6513 2.58738L12.0596 1.86428Z"
    fill="#E82F5C" mask="url(#path-23-inside-10)" />
  <mask id="path-25-inside-11" fill="white">
    <path d="M13.3554 3.66825L12.3731 4.20409L11.377 3.998L12.361 3.46216L13.3554 3.66825Z" />
  </mask>
  <path
    d="M13.3554 3.66825L13.9997 4.84929L17.2166 3.09459L13.6285 2.35094L13.3554 3.66825ZM12.3731 4.20409L12.1005 5.5215L12.5839 5.62152L13.0173 5.38513L12.3731 4.20409ZM11.377 3.998L10.7336 2.81649L7.51001 4.57175L11.1044 5.31541L11.377 3.998ZM12.361 3.46216L12.6341 2.14484L12.151 2.04472L11.7177 2.28064L12.361 3.46216ZM12.7112 2.48721L11.7289 3.02305L13.0173 5.38513L13.9997 4.84929L12.7112 2.48721ZM12.6456 2.88669L11.6495 2.68059L11.1044 5.31541L12.1005 5.5215L12.6456 2.88669ZM12.0203 5.17951L13.0044 4.64367L11.7177 2.28064L10.7336 2.81649L12.0203 5.17951ZM12.088 4.77947L13.0824 4.98557L13.6285 2.35094L12.6341 2.14484L12.088 4.77947Z"
    fill="#E82F5C" mask="url(#path-25-inside-11)" />
  <mask id="path-27-inside-12" fill="white">
    <path d="M12.1201 2.67845L11.1377 3.21484L10.1416 3.00929L11.1257 2.4729L12.1201 2.67845Z" />
  </mask>
  <path
    d="M12.1201 2.67845L12.7648 3.85921L15.9815 2.10287L12.3924 1.36099L12.1201 2.67845ZM11.1377 3.21484L10.8658 4.53239L11.3492 4.63213L11.7824 4.3956L11.1377 3.21484ZM10.1416 3.00929L9.49776 1.82805L6.27443 3.58495L9.86972 4.32684L10.1416 3.00929ZM11.1257 2.4729L11.398 1.15544L10.915 1.05559L10.4819 1.29166L11.1257 2.4729ZM11.4754 1.49768L10.493 2.03407L11.7824 4.3956L12.7648 3.85921L11.4754 1.49768ZM11.4096 1.89729L10.4135 1.69174L9.86972 4.32684L10.8658 4.53239L11.4096 1.89729ZM10.7854 4.19053L11.7695 3.65414L10.4819 1.29166L9.49776 1.82805L10.7854 4.19053ZM10.8534 3.79036L11.8478 3.99591L12.3924 1.36099L11.398 1.15544L10.8534 3.79036Z"
    fill="#E82F5C" mask="url(#path-27-inside-12)" />
  <defs>
    <filter id="filter0_d" x="-4.68303" y="-4.9301" width="33.1075" height="33.1075" filterUnits="userSpaceOnUse"
      color-interpolation-filters="sRGB">
      <feFlood flood-opacity="0" result="BackgroundImageFix" />
      <feColorMatrix in="SourceAlpha" type="matrix" values="0 0 0 0 0 0 0 0 0 0 0 0 0 0 0 0 0 0 127 0" />
      <feOffset />
      <feGaussianBlur stdDeviation="2.95968" />
      <feColorMatrix type="matrix" values="0 0 0 0 1 0 0 0 0 0.658824 0 0 0 0 0.658824 0 0 0 1 0" />
      <feBlend mode="normal" in2="BackgroundImageFix" result="effect1_dropShadow" />
      <feBlend mode="normal" in="SourceGraphic" in2="effect1_dropShadow" result="shape" />
    </filter>
  </defs>
</svg>
