<svg width="154" height="149" viewBox="0 0 154 149" fill="none" xmlns="http://www.w3.org/2000/svg">
<g filter="url(#filter0_d)">
<path d="M7.70508 6.11279H130.619V125.79H7.70508V6.11279Z" stroke="#E82F5C"/>
</g>
<path d="M76.3528 44.1431L61.4512 53.3203L63.9908 45.8929L77.7159 37.9814L76.3528 44.1431Z" fill="#E82F5C"/>
<path d="M105.895 68.8457L114.111 77.781H30.0984L22.9277 68.8457H105.895Z" fill="#E82F5C"/>
<path d="M71.3856 62.5161H82.5338L51.3675 119.683H41.209L71.3856 62.5161Z" fill="#E82F5C"/>
<path d="M89.4445 120H100.425L74.7296 81.876L69.6504 90.8113L89.4445 120Z" fill="#E82F5C"/>
<path d="M98.0901 26.6263H83.4126L79.043 21.1721H98.0901V17.0953L103.898 13V21.1721H117.175L123.001 26.6263H103.898V58.9236L98.0901 64.3779V26.6263Z" fill="#E82F5C"/>
<path d="M35.0285 26.6263H20.3696L16 21.1721H35.0285V17.0953L40.8546 13V21.1721H54.1316L59.9578 26.6263H40.8546V58.9236L35.0285 64.3779V26.6263Z" fill="#E82F5C"/>
<path d="M33.5713 27.0171V33.9792L20.9293 47.8661L19.7715 41.6672L33.5713 27.0171Z" fill="#E82F5C"/>
<path d="M42.0508 27.0171V33.6069L50.1365 44.7015L53.6471 42.5235L42.0508 27.0171Z" fill="#E82F5C"/>
<path d="M96.8194 27.0171V33.9792L84.1773 47.8661L83.0195 41.6672L96.8194 27.0171Z" fill="#E82F5C"/>
<path d="M105.297 27.0171V33.6069L113.383 44.7015L116.893 42.5235L105.297 27.0171Z" fill="#E82F5C"/>
<path d="M79.4709 48.0896L73.7381 51.4031L67.9492 50.1373L73.682 46.8052L79.4709 48.0896Z" fill="#E82F5C"/>
<path d="M71.9659 40.513L66.2517 43.8265L60.4629 42.542L66.177 39.2285L71.9659 40.513Z" fill="#E82F5C"/>
<path d="M76.3528 23.8525L61.4512 33.0298L63.9908 25.6024L77.7159 17.6909L76.3528 23.8525Z" fill="#E82F5C"/>
<path d="M79.4709 27.7991L73.7381 31.1126L67.9492 29.8468L73.682 26.5146L79.4709 27.7991Z" fill="#E82F5C"/>
<path d="M71.9659 20.2224L66.2517 23.5359L60.4629 22.2515L66.177 18.938L71.9659 20.2224Z" fill="#E82F5C"/>
<defs>
<filter id="filter0_d" x="-14.7949" y="-16.3872" width="167.914" height="164.677" filterUnits="userSpaceOnUse" color-interpolation-filters="sRGB">
<feFlood flood-opacity="0" result="BackgroundImageFix"/>
<feColorMatrix in="SourceAlpha" type="matrix" values="0 0 0 0 0 0 0 0 0 0 0 0 0 0 0 0 0 0 127 0"/>
<feOffset/>
<feGaussianBlur stdDeviation="11"/>
<feColorMatrix type="matrix" values="0 0 0 0 1 0 0 0 0 0.658824 0 0 0 0 0.658824 0 0 0 1 0"/>
<feBlend mode="normal" in2="BackgroundImageFix" result="effect1_dropShadow"/>
<feBlend mode="normal" in="SourceGraphic" in2="effect1_dropShadow" result="shape"/>
</filter>
</defs>
</svg>
