<svg fill="none" height="149" viewBox="0 0 154 149" width="154" xmlns="http://www.w3.org/2000/svg" xmlns:xlink="http://www.w3.org/1999/xlink"><filter id="a" color-interpolation-filters="sRGB" filterUnits="userSpaceOnUse" height="164.677" width="167.914" x="-14.7949" y="-16.3872"><feFlood flood-opacity="0" result="BackgroundImageFix"/><feColorMatrix in="SourceAlpha" type="matrix" values="0 0 0 0 0 0 0 0 0 0 0 0 0 0 0 0 0 0 127 0"/><feOffset/><feGaussianBlur stdDeviation="11"/><feColorMatrix type="matrix" values="0 0 0 0 1 0 0 0 0 0.658824 0 0 0 0 0.658824 0 0 0 1 0"/><feBlend in2="BackgroundImageFix" mode="normal" result="effect1_dropShadow"/><feBlend in="SourceGraphic" in2="effect1_dropShadow" mode="normal" result="shape"/></filter><g filter="url(#a)"><path d="m7.70508 6.11279h122.91392v119.67721h-122.91392z" stroke="#e82f5c"/></g><g fill="#e82f5c"><path d="m76.3528 44.1431-14.9016 9.1772 2.5396-7.4274 13.7251-7.9115z"/><path d="m105.895 68.8457 8.216 8.9353h-84.0126l-7.1707-8.9353z"/><path d="m71.3856 62.5161h11.1482l-31.1663 57.1669h-10.1585z"/><path d="m89.4445 120h10.9805l-25.6954-38.124-5.0792 8.9353z"/><path d="m98.0901 26.6263h-14.6775l-4.3696-5.4542h19.0471v-4.0768l5.8079-4.0953v8.1721h13.277l5.826 5.4542h-19.103v32.2973l-5.8079 5.4543z"/><path d="m35.0285 26.6263h-14.6589l-4.3696-5.4542h19.0285v-4.0768l5.8261-4.0953v8.1721h13.277l5.8262 5.4542h-19.1032v32.2973l-5.8261 5.4543z"/><path d="m33.5713 27.0171v6.9621l-12.642 13.8869-1.1578-6.1989z"/><path d="m42.0508 27.0171v6.5898l8.0857 11.0946 3.5106-2.178z"/><path d="m96.8194 27.0171v6.9621l-12.6421 13.8869-1.1578-6.1989z"/><path d="m105.297 27.0171v6.5898l8.086 11.0946 3.51-2.178z"/><path d="m79.4709 48.0896-5.7328 3.3135-5.7889-1.2658 5.7328-3.3321z"/><path d="m71.9659 40.513-5.7142 3.3135-5.7888-1.2845 5.7141-3.3135z"/><path d="m76.3528 23.8525-14.9016 9.1773 2.5396-7.4274 13.7251-7.9115z"/><path d="m79.4709 27.7991-5.7328 3.3135-5.7889-1.2658 5.7328-3.3322z"/><path d="m71.9659 20.2224-5.7142 3.3135-5.7888-1.2844 5.7141-3.3135z"/></g></svg>