<svg width="573" height="575" viewBox="0 0 573 575" fill="none" xmlns="http://www.w3.org/2000/svg">
<path d="M323.2 167.3L243.4 216.6L257 176.7L330.5 134.2L323.2 167.3Z" fill="#E82F5C"/>
<path d="M481.4 300L525.4 348H75.4996L37.0996 300H481.4Z" fill="#E82F5C"/>
<path d="M296.6 266H356.3L189.4 573.1H135L296.6 266Z" fill="#E82F5C"/>
<path d="M393.301 574.8H452.101L314.501 370L287.301 418L393.301 574.8Z" fill="#E82F5C"/>
<path d="M439.6 73.2H361L337.6 43.9H439.6V22L470.7 0V43.9H541.8L573 73.2H470.7V246.7L439.6 276V73.2Z" fill="#E82F5C"/>
<path d="M101.9 73.2H23.4L0 43.9H101.9V22L133.1 0V43.9H204.2L235.4 73.2H133.1V246.7L101.9 276V73.2Z" fill="#E82F5C"/>
<path d="M94.0992 75.2998V112.7L26.3992 187.3L20.1992 154L94.0992 75.2998Z" fill="#E82F5C"/>
<path d="M139.5 75.2998V110.7L182.8 170.3L201.6 158.6L139.5 75.2998Z" fill="#E82F5C"/>
<path d="M432.8 75.2998V112.7L365.1 187.3L358.9 154L432.8 75.2998Z" fill="#E82F5C"/>
<path d="M478.199 75.2998V110.7L521.499 170.3L540.299 158.6L478.199 75.2998Z" fill="#E82F5C"/>
<path d="M339.899 188.5L309.199 206.3L278.199 199.5L308.899 181.6L339.899 188.5Z" fill="#E82F5C"/>
<path d="M299.7 147.8L269.1 165.6L238.1 158.7L268.7 140.9L299.7 147.8Z" fill="#E82F5C"/>
<path d="M323.2 58.3002L243.4 107.6L257 67.7002L330.5 25.2002L323.2 58.3002Z" fill="#E82F5C"/>
<path d="M339.899 79.5001L309.199 97.3001L278.199 90.5001L308.899 72.6001L339.899 79.5001Z" fill="#E82F5C"/>
<path d="M299.7 38.7999L269.1 56.5999L238.1 49.6999L268.7 31.8999L299.7 38.7999Z" fill="#E82F5C"/>
</svg>
