<svg width="79" height="82" viewBox="0 0 79 82" fill="none" xmlns="http://www.w3.org/2000/svg">
<mask id="path-1-inside-1" fill="white">
<path d="M44.9908 18.6142L34 24L35.8711 19.6387L46 15L44.9908 18.6142Z"/>
</mask>
<path d="M44.9908 18.6142L47.191 23.1041L49.2037 22.1178L49.8066 19.959L44.9908 18.6142ZM34 24L29.405 22.0286L24.0863 34.426L36.2002 28.4899L34 24ZM35.8711 19.6387L33.7892 15.0928L32.0363 15.8956L31.2761 17.6674L35.8711 19.6387ZM46 15L50.8158 16.3447L53.7132 5.96817L43.9181 10.454L46 15ZM42.7906 14.1243L31.7998 19.5101L36.2002 28.4899L47.191 23.1041L42.7906 14.1243ZM38.595 25.9714L40.4661 21.6101L31.2761 17.6674L29.405 22.0286L38.595 25.9714ZM37.953 24.1847L48.0819 19.546L43.9181 10.454L33.7892 15.0928L37.953 24.1847ZM41.1842 13.6553L40.175 17.2695L49.8066 19.959L50.8158 16.3447L41.1842 13.6553Z" fill="#E82F5C" mask="url(#path-1-inside-1)"/>
<path d="M38.1071 39.6585V37.1585H35.6071H10.3333L9.88618 36.6951H35.6071H38.1071V34.1951V31.5339L40.1358 30.3512V34.1951V36.6951H42.6358H68.1139L68.7101 37.1585H42.6358H40.1358V39.6585V75.3134L38.1071 76.8903V39.6585Z" stroke="#E82F5C" stroke-width="5"/>
<path d="M30.5 46.0284V47.409L14.0511 59.8633L13.1395 59.172L30.5 46.0284Z" stroke="#E82F5C" stroke-width="5"/>
<path d="M64.8589 59.1709L63.9441 59.8638L47.5 47.4092V46.0284L64.8589 59.1709Z" stroke="#E82F5C" stroke-width="5"/>
<mask id="path-6-inside-2" fill="white">
<path d="M60.8577 8.21881H50.1789L47 4.92982H60.8577V2.46857L65.0987 0V4.92982H74.759L79 8.21881H65.0987V27.711L60.8577 31V8.21881Z"/>
</mask>
<path d="M60.8577 8.21881H65.8577V3.21881H60.8577V8.21881ZM50.1789 8.21881L46.5837 11.6937L48.0578 13.2188H50.1789V8.21881ZM47 4.92982V-0.0701749H35.2136L43.4048 8.40469L47 4.92982ZM60.8577 4.92982V9.92982H65.8577V4.92982H60.8577ZM60.8577 2.46857L58.3424 -1.85268L55.8577 -0.406399V2.46857H60.8577ZM65.0987 0H70.0987V-8.69575L62.5834 -4.32125L65.0987 0ZM65.0987 4.92982H60.0987V9.92982H65.0987V4.92982ZM74.759 4.92982L77.8232 0.97876L76.4707 -0.0701749H74.759V4.92982ZM79 8.21881V13.2188H93.6061L82.0642 4.26774L79 8.21881ZM65.0987 8.21881V3.21881H60.0987V8.21881H65.0987ZM65.0987 27.711L68.1628 31.6621L70.0987 30.1608V27.711H65.0987ZM60.8577 31H55.8577V41.205L63.9219 34.9511L60.8577 31ZM60.8577 3.21881H50.1789V13.2188H60.8577V3.21881ZM53.7741 4.74395L50.5952 1.45497L43.4048 8.40469L46.5837 11.6937L53.7741 4.74395ZM47 9.92982H60.8577V-0.0701749H47V9.92982ZM65.8577 4.92982V2.46857H55.8577V4.92982H65.8577ZM63.373 6.78982L67.614 4.32125L62.5834 -4.32125L58.3424 -1.85268L63.373 6.78982ZM60.0987 0V4.92982H70.0987V0H60.0987ZM65.0987 9.92982H74.759V-0.0701749H65.0987V9.92982ZM71.6949 8.88089L75.9358 12.1699L82.0642 4.26774L77.8232 0.97876L71.6949 8.88089ZM79 3.21881H65.0987V13.2188H79V3.21881ZM60.0987 8.21881V27.711H70.0987V8.21881H60.0987ZM62.0345 23.76L57.7935 27.0489L63.9219 34.9511L68.1628 31.6621L62.0345 23.76ZM65.8577 31V8.21881H55.8577V31H65.8577Z" fill="#E82F5C" mask="url(#path-6-inside-2)"/>
<mask id="path-8-inside-3" fill="white">
<path d="M59 13.8662L49.9464 23L47 20.5669L59 9V13.8662Z"/>
</mask>
<path d="M59 13.8662L62.5511 17.3861L64 15.9244V13.8662H59ZM49.9464 23L46.7626 26.8553L50.2832 29.7626L53.4974 26.5199L49.9464 23ZM47 20.5669L43.53 16.967L39.4965 20.855L43.8162 24.4222L47 20.5669ZM59 9H64V-2.76417L55.53 5.4001L59 9ZM55.4489 10.3463L46.3953 19.4801L53.4974 26.5199L62.5511 17.3861L55.4489 10.3463ZM53.1301 19.1447L50.1838 16.7115L43.8162 24.4222L46.7626 26.8553L53.1301 19.1447ZM50.47 24.1668L62.47 12.5999L55.53 5.4001L43.53 16.967L50.47 24.1668ZM54 9V13.8662H64V9H54Z" fill="#E82F5C" mask="url(#path-8-inside-3)"/>
<mask id="path-10-inside-4" fill="white">
<path d="M66 13.8662L73.9358 23L77 20.5669L66 9V13.8662Z"/>
</mask>
<path d="M66 13.8662H61V15.7349L62.2256 17.1456L66 13.8662ZM73.9358 23L70.1614 26.2793L73.2988 29.8903L77.045 26.9157L73.9358 23ZM77 20.5669L80.1092 24.4826L84.3907 21.0829L80.6232 17.1213L77 20.5669ZM66 9L69.6232 5.55437L61 -3.51324V9H66ZM62.2256 17.1456L70.1614 26.2793L77.7102 19.7207L69.7744 10.5869L62.2256 17.1456ZM77.045 26.9157L80.1092 24.4826L73.8908 16.6512L70.8266 19.0843L77.045 26.9157ZM80.6232 17.1213L69.6232 5.55437L62.3768 12.4456L73.3768 24.0125L80.6232 17.1213ZM61 9V13.8662H71V9H61Z" fill="#E82F5C" mask="url(#path-10-inside-4)"/>
<mask id="path-12-inside-5" fill="white">
<path d="M13.8577 8.21881H3.1789L0 4.92982H13.8577V2.46857L18.0914 0V4.92982H27.759L32 8.21881H18.0914V27.711L13.8577 31V8.21881Z"/>
</mask>
<path d="M13.8577 8.21881H18.8577V3.21881H13.8577V8.21881ZM3.1789 8.21881L-0.416281 11.6937L1.05782 13.2188H3.1789V8.21881ZM0 4.92982V-0.0701749H-11.7864L-3.59519 8.40468L0 4.92982ZM13.8577 4.92982V9.92982H18.8577V4.92982H13.8577ZM13.8577 2.46857L11.3392 -1.85081L8.85769 -0.403917V2.46857H13.8577ZM18.0914 0H23.0914V-8.70326L15.5729 -4.31938L18.0914 0ZM18.0914 4.92982H13.0914V9.92982H18.0914V4.92982ZM27.759 4.92982L30.8232 0.978757L29.4706 -0.0701749H27.759V4.92982ZM32 8.21881V13.2188H46.6061L35.0642 4.26774L32 8.21881ZM18.0914 8.21881V3.21881H13.0914V8.21881H18.0914ZM18.0914 27.711L21.1588 31.6595L23.0914 30.1582V27.711H18.0914ZM13.8577 31H8.85769V41.2158L16.9251 34.9485L13.8577 31ZM13.8577 3.21881H3.1789V13.2188H13.8577V3.21881ZM6.77409 4.74395L3.59519 1.45497L-3.59519 8.40468L-0.416281 11.6937L6.77409 4.74395ZM0 9.92982H13.8577V-0.0701749H0V9.92982ZM18.8577 4.92982V2.46857H8.85769V4.92982H18.8577ZM16.3762 6.78794L20.6099 4.31938L15.5729 -4.31938L11.3392 -1.85081L16.3762 6.78794ZM13.0914 0V4.92982H23.0914V0H13.0914ZM18.0914 9.92982H27.759V-0.0701749H18.0914V9.92982ZM24.6949 8.88089L28.9358 12.1699L35.0642 4.26774L30.8232 0.978757L24.6949 8.88089ZM32 3.21881H18.0914V13.2188H32V3.21881ZM13.0914 8.21881V27.711H23.0914V8.21881H13.0914ZM15.0239 23.7625L10.7902 27.0515L16.9251 34.9485L21.1588 31.6595L15.0239 23.7625ZM18.8577 31V8.21881H8.85769V31H18.8577Z" fill="#E82F5C" mask="url(#path-12-inside-5)"/>
<mask id="path-14-inside-6" fill="white">
<path d="M13 13.8662L3.94636 23L1 20.5669L13 9V13.8662Z"/>
</mask>
<path d="M13 13.8662L16.5511 17.3861L18 15.9244V13.8662H13ZM3.94636 23L0.762612 26.8554L4.28318 29.7626L7.49744 26.5199L3.94636 23ZM1 20.5669L-2.46997 16.967L-6.50353 20.855L-2.18375 24.4222L1 20.5669ZM13 9H18V-2.76417L9.53003 5.4001L13 9ZM9.44892 10.3463L0.395286 19.4801L7.49744 26.5199L16.5511 17.3861L9.44892 10.3463ZM7.13012 19.1447L4.18375 16.7115L-2.18375 24.4222L0.762612 26.8554L7.13012 19.1447ZM4.46997 24.1668L16.47 12.5999L9.53003 5.4001L-2.46997 16.967L4.46997 24.1668ZM8 9V13.8662H18V9H8Z" fill="#E82F5C" mask="url(#path-14-inside-6)"/>
<mask id="path-16-inside-7" fill="white">
<path d="M19 13.8662L26.9358 23L30 20.5669L19 9V13.8662Z"/>
</mask>
<path d="M19 13.8662H14V15.7349L15.2256 17.1456L19 13.8662ZM26.9358 23L23.1614 26.2793L26.2988 29.8903L30.045 26.9157L26.9358 23ZM30 20.5669L33.1092 24.4826L37.3907 21.0829L33.6232 17.1213L30 20.5669ZM19 9L22.6232 5.55437L14 -3.51324V9H19ZM15.2256 17.1456L23.1614 26.2793L30.7102 19.7207L22.7744 10.5869L15.2256 17.1456ZM30.045 26.9157L33.1092 24.4826L26.8908 16.6512L23.8266 19.0843L30.045 26.9157ZM33.6232 17.1213L22.6232 5.55437L15.3768 12.4456L26.3768 24.0125L33.6232 17.1213ZM14 9V13.8662H24V9H14Z" fill="#E82F5C" mask="url(#path-16-inside-7)"/>
<mask id="path-18-inside-8" fill="white">
<path d="M46 21.8333L42.0278 24L38 23.1667L41.9792 21L46 21.8333Z"/>
</mask>
<path d="M46 21.8333L48.3943 26.2228L60.3504 19.7013L47.0147 16.9374L46 21.8333ZM42.0278 24L41.0148 28.8963L42.8114 29.268L44.422 28.3895L42.0278 24ZM38 23.1667L35.609 18.7754L23.6281 25.2991L36.987 28.063L38 23.1667ZM41.9792 21L42.9939 16.104L41.1985 15.7319L39.5881 16.6088L41.9792 21ZM43.6057 17.4439L39.6335 19.6105L44.422 28.3895L48.3943 26.2228L43.6057 17.4439ZM43.0408 19.1037L39.013 18.2704L36.987 28.063L41.0148 28.8963L43.0408 19.1037ZM40.391 27.5579L44.3702 25.3912L39.5881 16.6088L35.609 18.7754L40.391 27.5579ZM40.9645 25.896L44.9853 26.7293L47.0147 16.9374L42.9939 16.104L40.9645 25.896Z" fill="#E82F5C" mask="url(#path-18-inside-8)"/>
<mask id="path-20-inside-9" fill="white">
<path d="M41 16.8333L37.0278 19L33 18.1667L36.9792 16L41 16.8333Z"/>
</mask>
<path d="M41 16.8333L43.3943 21.2228L55.3504 14.7013L42.0147 11.9374L41 16.8333ZM37.0278 19L36.0147 23.8963L37.8114 24.268L39.422 23.3895L37.0278 19ZM33 18.1667L30.609 13.7754L18.6281 20.299L31.987 23.063L33 18.1667ZM36.9792 16L37.9939 11.104L36.1985 10.7319L34.5881 11.6088L36.9792 16ZM38.6057 12.4439L34.6335 14.6105L39.422 23.3895L43.3943 21.2228L38.6057 12.4439ZM38.0408 14.1037L34.013 13.2704L31.987 23.063L36.0147 23.8963L38.0408 14.1037ZM35.391 22.5579L39.3702 20.3912L34.5881 11.6088L30.609 13.7754L35.391 22.5579ZM35.9645 20.896L39.9853 21.7293L42.0147 11.9374L37.9939 11.104L35.9645 20.896Z" fill="#E82F5C" mask="url(#path-20-inside-9)"/>
<mask id="path-22-inside-10" fill="white">
<path d="M44.9908 6.61708L34 12L35.8711 7.6424L46 3L44.9908 6.61708Z"/>
</mask>
<path d="M44.9908 6.61708L47.19 11.1074L49.2041 10.121L49.8068 7.96081L44.9908 6.61708ZM34 12L29.4056 10.0272L24.0823 22.4248L36.1992 16.4904L34 12ZM35.8711 7.6424L33.7878 3.09708L32.0367 3.89966L31.2767 5.66965L35.8711 7.6424ZM46 3L50.8161 4.34374L53.7118 -6.0347L43.9167 -1.54533L46 3ZM42.7916 2.12671L31.8008 7.50963L36.1992 16.4904L47.19 11.1074L42.7916 2.12671ZM38.5944 13.9728L40.4655 9.61516L31.2767 5.66965L29.4056 10.0272L38.5944 13.9728ZM37.9544 12.1877L48.0833 7.54533L43.9167 -1.54533L33.7878 3.09708L37.9544 12.1877ZM41.1839 1.65626L40.1747 5.27334L49.8068 7.96081L50.8161 4.34374L41.1839 1.65626Z" fill="#E82F5C" mask="url(#path-22-inside-10)"/>
<mask id="path-24-inside-11" fill="white">
<path d="M46 8.83333L42.0278 11L38 10.1667L41.9792 8L46 8.83333Z"/>
</mask>
<path d="M46 8.83333L48.3943 13.2228L60.3504 6.70126L47.0147 3.93738L46 8.83333ZM42.0278 11L41.0148 15.8963L42.8114 16.268L44.422 15.3895L42.0278 11ZM38 10.1667L35.609 5.77543L23.6281 12.2991L36.987 15.063L38 10.1667ZM41.9792 8L42.9939 3.10404L41.1985 2.73194L39.5881 3.60877L41.9792 8ZM43.6057 4.44385L39.6335 6.61052L44.422 15.3895L48.3943 13.2228L43.6057 4.44385ZM43.0408 6.1037L39.013 5.27036L36.987 15.063L41.0148 15.8963L43.0408 6.1037ZM40.391 14.5579L44.3702 12.3912L39.5881 3.60877L35.609 5.77543L40.391 14.5579ZM40.9645 12.896L44.9853 13.7293L47.0147 3.93738L42.9939 3.10404L40.9645 12.896Z" fill="#E82F5C" mask="url(#path-24-inside-11)"/>
<mask id="path-26-inside-12" fill="white">
<path d="M41 4.83113L37.0278 7L33 6.16887L36.9792 4L41 4.83113Z"/>
</mask>
<path d="M41 4.83113L43.3961 9.21959L55.3513 2.69194L42.0121 -0.0653553L41 4.83113ZM37.0278 7L36.0173 11.8968L37.8139 12.2676L39.4239 11.3885L37.0278 7ZM33 6.16887L30.6071 1.77866L18.6272 8.30838L31.9895 11.0657L33 6.16887ZM36.9792 4L37.9913 -0.896487L36.196 -1.26759L34.5863 -0.390213L36.9792 4ZM38.6039 0.442677L34.6316 2.61155L39.4239 11.3885L43.3961 9.21959L38.6039 0.442677ZM38.0382 2.10317L34.0105 1.27204L31.9895 11.0657L36.0173 11.8968L38.0382 2.10317ZM35.3929 10.5591L39.3721 8.39021L34.5863 -0.390213L30.6071 1.77866L35.3929 10.5591ZM35.967 8.89649L39.9879 9.72762L42.0121 -0.0653553L37.9913 -0.896487L35.967 8.89649Z" fill="#E82F5C" mask="url(#path-26-inside-12)"/>
</svg>
