<svg fill="none" height="575" viewBox="0 0 573 575" width="573" xmlns="http://www.w3.org/2000/svg"><g fill="#e82f5c"><path d="m323.2 167.3-79.8 49.3 13.6-39.9 73.5-42.5z"/><path d="m481.4 300 44 48h-449.9004l-38.4-48z"/><path d="m296.6 266h59.7l-166.9 307.1h-54.4z"/><path d="m393.301 574.8h58.8l-137.6-204.8-27.2 48z"/><path d="m439.6 73.2h-78.6l-23.4-29.3h102v-21.9l31.1-22v43.9h71.1l31.2 29.3h-102.3v173.5l-31.1 29.3z"/><path d="m101.9 73.2h-78.5l-23.4-29.3h101.9v-21.9l31.2-22v43.9h71.1l31.2 29.3h-102.3v173.5l-31.2 29.3z"/><path d="m94.0992 75.2998v37.4002l-67.7 74.6-6.2-33.3z"/><path d="m139.5 75.2998v35.4002l43.3 59.6 18.8-11.7z"/><path d="m432.8 75.2998v37.4002l-67.7 74.6-6.2-33.3z"/><path d="m478.199 75.2998v35.4002l43.3 59.6 18.8-11.7z"/><path d="m339.899 188.5-30.7 17.8-31-6.8 30.7-17.9z"/><path d="m299.7 147.8-30.6 17.8-31-6.9 30.6-17.8z"/><path d="m323.2 58.3002-79.8 49.2998 13.6-39.8998 73.5-42.5z"/><path d="m339.899 79.5001-30.7 17.8-31-6.8 30.7-17.9z"/><path d="m299.7 38.7999-30.6 17.8-31-6.9 30.6-17.8z"/></g></svg>