<svg width="186" height="186" viewBox="0 0 186 186" fill="none" xmlns="http://www.w3.org/2000/svg">
<g clip-path="url(#clip0)">
<g filter="url(#filter0_d)">
<path d="M5.5 89.5V4.5H90.5V89.5H5.5Z" stroke="#E82F5C"/>
</g>
<mask id="path-3-inside-1" fill="white">
<path d="M52.9908 24.6142L42 30L43.8711 25.6387L54 21L52.9908 24.6142Z"/>
</mask>
<path d="M52.9908 24.6142L55.191 29.1041L57.2037 28.1178L57.8066 25.959L52.9908 24.6142ZM42 30L37.405 28.0286L32.0863 40.426L44.2002 34.4899L42 30ZM43.8711 25.6387L41.7892 21.0928L40.0363 21.8956L39.2761 23.6674L43.8711 25.6387ZM54 21L58.8158 22.3447L61.7132 11.9682L51.9181 16.454L54 21ZM50.7906 20.1243L39.7998 25.5101L44.2002 34.4899L55.191 29.1041L50.7906 20.1243ZM46.595 31.9714L48.4661 27.6101L39.2761 23.6674L37.405 28.0286L46.595 31.9714ZM45.953 30.1847L56.0819 25.546L51.9181 16.454L41.7892 21.0928L45.953 30.1847ZM49.1842 19.6553L48.175 23.2695L57.8066 25.959L58.8158 22.3447L49.1842 19.6553Z" fill="#E82F5C" mask="url(#path-3-inside-1)"/>
<path d="M46.1071 45.6585V43.1585H43.6071H18.3333L17.8862 42.6951H43.6071H46.1071V40.1951V37.5339L48.1358 36.3512V40.1951V42.6951H50.6358H76.1139L76.7101 43.1585H50.6358H48.1358V45.6585V81.3134L46.1071 82.8903V45.6585Z" stroke="#E82F5C" stroke-width="5"/>
<path d="M38.5 52.0284V53.409L22.0511 65.8633L21.1395 65.172L38.5 52.0284Z" stroke="#E82F5C" stroke-width="5"/>
<path d="M72.8589 65.1709L71.9441 65.8638L55.5 53.4092V52.0284L72.8589 65.1709Z" stroke="#E82F5C" stroke-width="5"/>
<mask id="path-8-inside-2" fill="white">
<path d="M68.8577 14.2188H58.1789L55 10.9298H68.8577V8.46857L73.0987 6V10.9298H82.759L87 14.2188H73.0987V33.711L68.8577 37V14.2188Z"/>
</mask>
<path d="M68.8577 14.2188H73.8577V9.21881H68.8577V14.2188ZM58.1789 14.2188L54.5837 17.6937L56.0578 19.2188H58.1789V14.2188ZM55 10.9298V5.92983H43.2136L51.4048 14.4047L55 10.9298ZM68.8577 10.9298V15.9298H73.8577V10.9298H68.8577ZM68.8577 8.46857L66.3424 4.14732L63.8577 5.5936V8.46857H68.8577ZM73.0987 6H78.0987V-2.69575L70.5834 1.67875L73.0987 6ZM73.0987 10.9298H68.0987V15.9298H73.0987V10.9298ZM82.759 10.9298L85.8232 6.97876L84.4707 5.92983H82.759V10.9298ZM87 14.2188V19.2188H101.606L90.0642 10.2677L87 14.2188ZM73.0987 14.2188V9.21881H68.0987V14.2188H73.0987ZM73.0987 33.711L76.1628 37.6621L78.0987 36.1608V33.711H73.0987ZM68.8577 37H63.8577V47.205L71.9219 40.9511L68.8577 37ZM68.8577 9.21881H58.1789V19.2188H68.8577V9.21881ZM61.7741 10.7439L58.5952 7.45497L51.4048 14.4047L54.5837 17.6937L61.7741 10.7439ZM55 15.9298H68.8577V5.92983H55V15.9298ZM73.8577 10.9298V8.46857H63.8577V10.9298H73.8577ZM71.373 12.7898L75.614 10.3213L70.5834 1.67875L66.3424 4.14732L71.373 12.7898ZM68.0987 6V10.9298H78.0987V6H68.0987ZM73.0987 15.9298H82.759V5.92983H73.0987V15.9298ZM79.6949 14.8809L83.9358 18.1699L90.0642 10.2677L85.8232 6.97876L79.6949 14.8809ZM87 9.21881H73.0987V19.2188H87V9.21881ZM68.0987 14.2188V33.711H78.0987V14.2188H68.0987ZM70.0345 29.76L65.7935 33.0489L71.9219 40.9511L76.1628 37.6621L70.0345 29.76ZM73.8577 37V14.2188H63.8577V37H73.8577Z" fill="#E82F5C" mask="url(#path-8-inside-2)"/>
<mask id="path-10-inside-3" fill="white">
<path d="M67 19.8662L57.9464 29L55 26.5669L67 15V19.8662Z"/>
</mask>
<path d="M67 19.8662L70.5511 23.3861L72 21.9244V19.8662H67ZM57.9464 29L54.7626 32.8553L58.2832 35.7626L61.4974 32.5199L57.9464 29ZM55 26.5669L51.53 22.967L47.4965 26.855L51.8162 30.4222L55 26.5669ZM67 15H72V3.23583L63.53 11.4001L67 15ZM63.4489 16.3463L54.3953 25.4801L61.4974 32.5199L70.5511 23.3861L63.4489 16.3463ZM61.1301 25.1447L58.1838 22.7115L51.8162 30.4222L54.7626 32.8553L61.1301 25.1447ZM58.47 30.1668L70.47 18.5999L63.53 11.4001L51.53 22.967L58.47 30.1668ZM62 15V19.8662H72V15H62Z" fill="#E82F5C" mask="url(#path-10-inside-3)"/>
<mask id="path-12-inside-4" fill="white">
<path d="M74 19.8662L81.9358 29L85 26.5669L74 15V19.8662Z"/>
</mask>
<path d="M74 19.8662H69V21.7349L70.2256 23.1456L74 19.8662ZM81.9358 29L78.1614 32.2793L81.2988 35.8903L85.045 32.9157L81.9358 29ZM85 26.5669L88.1092 30.4826L92.3907 27.0829L88.6232 23.1213L85 26.5669ZM74 15L77.6232 11.5544L69 2.48676V15H74ZM70.2256 23.1456L78.1614 32.2793L85.7102 25.7207L77.7744 16.5869L70.2256 23.1456ZM85.045 32.9157L88.1092 30.4826L81.8908 22.6512L78.8266 25.0843L85.045 32.9157ZM88.6232 23.1213L77.6232 11.5544L70.3768 18.4456L81.3768 30.0125L88.6232 23.1213ZM69 15V19.8662H79V15H69Z" fill="#E82F5C" mask="url(#path-12-inside-4)"/>
<mask id="path-14-inside-5" fill="white">
<path d="M21.8577 14.2188H11.1789L8 10.9298H21.8577V8.46857L26.0914 6V10.9298H35.759L40 14.2188H26.0914V33.711L21.8577 37V14.2188Z"/>
</mask>
<path d="M21.8577 14.2188H26.8577V9.21881H21.8577V14.2188ZM11.1789 14.2188L7.58372 17.6937L9.05782 19.2188H11.1789V14.2188ZM8 10.9298V5.92983H-3.7864L4.40481 14.4047L8 10.9298ZM21.8577 10.9298V15.9298H26.8577V10.9298H21.8577ZM21.8577 8.46857L19.3392 4.14919L16.8577 5.59608V8.46857H21.8577ZM26.0914 6H31.0914V-2.70326L23.5729 1.68062L26.0914 6ZM26.0914 10.9298H21.0914V15.9298H26.0914V10.9298ZM35.759 10.9298L38.8232 6.97876L37.4706 5.92983H35.759V10.9298ZM40 14.2188V19.2188H54.6061L43.0642 10.2677L40 14.2188ZM26.0914 14.2188V9.21881H21.0914V14.2188H26.0914ZM26.0914 33.711L29.1588 37.6595L31.0914 36.1582V33.711H26.0914ZM21.8577 37H16.8577V47.2158L24.9251 40.9485L21.8577 37ZM21.8577 9.21881H11.1789V19.2188H21.8577V9.21881ZM14.7741 10.7439L11.5952 7.45497L4.40481 14.4047L7.58372 17.6937L14.7741 10.7439ZM8 15.9298H21.8577V5.92983H8V15.9298ZM26.8577 10.9298V8.46857H16.8577V10.9298H26.8577ZM24.3762 12.7879L28.6099 10.3194L23.5729 1.68062L19.3392 4.14919L24.3762 12.7879ZM21.0914 6V10.9298H31.0914V6H21.0914ZM26.0914 15.9298H35.759V5.92983H26.0914V15.9298ZM32.6949 14.8809L36.9358 18.1699L43.0642 10.2677L38.8232 6.97876L32.6949 14.8809ZM40 9.21881H26.0914V19.2188H40V9.21881ZM21.0914 14.2188V33.711H31.0914V14.2188H21.0914ZM23.0239 29.7625L18.7902 33.0515L24.9251 40.9485L29.1588 37.6595L23.0239 29.7625ZM26.8577 37V14.2188H16.8577V37H26.8577Z" fill="#E82F5C" mask="url(#path-14-inside-5)"/>
<mask id="path-16-inside-6" fill="white">
<path d="M21 19.8662L11.9464 29L9 26.5669L21 15V19.8662Z"/>
</mask>
<path d="M21 19.8662L24.5511 23.3861L26 21.9244V19.8662H21ZM11.9464 29L8.76261 32.8554L12.2832 35.7626L15.4974 32.5199L11.9464 29ZM9 26.5669L5.53003 22.967L1.49647 26.855L5.81625 30.4222L9 26.5669ZM21 15H26V3.23583L17.53 11.4001L21 15ZM17.4489 16.3463L8.39529 25.4801L15.4974 32.5199L24.5511 23.3861L17.4489 16.3463ZM15.1301 25.1447L12.1838 22.7115L5.81625 30.4222L8.76261 32.8554L15.1301 25.1447ZM12.47 30.1668L24.47 18.5999L17.53 11.4001L5.53003 22.967L12.47 30.1668ZM16 15V19.8662H26V15H16Z" fill="#E82F5C" mask="url(#path-16-inside-6)"/>
<mask id="path-18-inside-7" fill="white">
<path d="M27 19.8662L34.9358 29L38 26.5669L27 15V19.8662Z"/>
</mask>
<path d="M27 19.8662H22V21.7349L23.2256 23.1456L27 19.8662ZM34.9358 29L31.1614 32.2793L34.2988 35.8903L38.045 32.9157L34.9358 29ZM38 26.5669L41.1092 30.4826L45.3907 27.0829L41.6232 23.1213L38 26.5669ZM27 15L30.6232 11.5544L22 2.48676V15H27ZM23.2256 23.1456L31.1614 32.2793L38.7102 25.7207L30.7744 16.5869L23.2256 23.1456ZM38.045 32.9157L41.1092 30.4826L34.8908 22.6512L31.8266 25.0843L38.045 32.9157ZM41.6232 23.1213L30.6232 11.5544L23.3768 18.4456L34.3768 30.0125L41.6232 23.1213ZM22 15V19.8662H32V15H22Z" fill="#E82F5C" mask="url(#path-18-inside-7)"/>
<mask id="path-20-inside-8" fill="white">
<path d="M54 27.8333L50.0278 30L46 29.1667L49.9792 27L54 27.8333Z"/>
</mask>
<path d="M54 27.8333L56.3943 32.2228L68.3504 25.7013L55.0147 22.9374L54 27.8333ZM50.0278 30L49.0148 34.8963L50.8114 35.268L52.422 34.3895L50.0278 30ZM46 29.1667L43.609 24.7754L31.6281 31.2991L44.987 34.063L46 29.1667ZM49.9792 27L50.9939 22.104L49.1985 21.7319L47.5881 22.6088L49.9792 27ZM51.6057 23.4439L47.6335 25.6105L52.422 34.3895L56.3943 32.2228L51.6057 23.4439ZM51.0408 25.1037L47.013 24.2704L44.987 34.063L49.0148 34.8963L51.0408 25.1037ZM48.391 33.5579L52.3702 31.3912L47.5881 22.6088L43.609 24.7754L48.391 33.5579ZM48.9645 31.896L52.9853 32.7293L55.0147 22.9374L50.9939 22.104L48.9645 31.896Z" fill="#E82F5C" mask="url(#path-20-inside-8)"/>
<mask id="path-22-inside-9" fill="white">
<path d="M49 22.8333L45.0278 25L41 24.1667L44.9792 22L49 22.8333Z"/>
</mask>
<path d="M49 22.8333L51.3943 27.2228L63.3504 20.7013L50.0147 17.9374L49 22.8333ZM45.0278 25L44.0147 29.8963L45.8114 30.268L47.422 29.3895L45.0278 25ZM41 24.1667L38.609 19.7754L26.6281 26.299L39.987 29.063L41 24.1667ZM44.9792 22L45.9939 17.104L44.1985 16.7319L42.5881 17.6088L44.9792 22ZM46.6057 18.4439L42.6335 20.6105L47.422 29.3895L51.3943 27.2228L46.6057 18.4439ZM46.0408 20.1037L42.013 19.2704L39.987 29.063L44.0147 29.8963L46.0408 20.1037ZM43.391 28.5579L47.3702 26.3912L42.5881 17.6088L38.609 19.7754L43.391 28.5579ZM43.9645 26.896L47.9853 27.7293L50.0147 17.9374L45.9939 17.104L43.9645 26.896Z" fill="#E82F5C" mask="url(#path-22-inside-9)"/>
<mask id="path-24-inside-10" fill="white">
<path d="M52.9908 12.6171L42 18L43.8711 13.6424L54 9L52.9908 12.6171Z"/>
</mask>
<path d="M52.9908 12.6171L55.19 17.1074L57.2041 16.121L57.8068 13.9608L52.9908 12.6171ZM42 18L37.4056 16.0272L32.0823 28.4248L44.1992 22.4904L42 18ZM43.8711 13.6424L41.7878 9.09708L40.0367 9.89966L39.2767 11.6696L43.8711 13.6424ZM54 9L58.8161 10.3437L61.7118 -0.0347033L51.9167 4.45467L54 9ZM50.7916 8.12671L39.8008 13.5096L44.1992 22.4904L55.19 17.1074L50.7916 8.12671ZM46.5944 19.9728L48.4655 15.6152L39.2767 11.6696L37.4056 16.0272L46.5944 19.9728ZM45.9544 18.1877L56.0833 13.5453L51.9167 4.45467L41.7878 9.09708L45.9544 18.1877ZM49.1839 7.65626L48.1747 11.2733L57.8068 13.9608L58.8161 10.3437L49.1839 7.65626Z" fill="#E82F5C" mask="url(#path-24-inside-10)"/>
<mask id="path-26-inside-11" fill="white">
<path d="M54 14.8333L50.0278 17L46 16.1667L49.9792 14L54 14.8333Z"/>
</mask>
<path d="M54 14.8333L56.3943 19.2228L68.3504 12.7013L55.0147 9.93738L54 14.8333ZM50.0278 17L49.0148 21.8963L50.8114 22.268L52.422 21.3895L50.0278 17ZM46 16.1667L43.609 11.7754L31.6281 18.2991L44.987 21.063L46 16.1667ZM49.9792 14L50.9939 9.10404L49.1985 8.73194L47.5881 9.60877L49.9792 14ZM51.6057 10.4439L47.6335 12.6105L52.422 21.3895L56.3943 19.2228L51.6057 10.4439ZM51.0408 12.1037L47.013 11.2704L44.987 21.063L49.0148 21.8963L51.0408 12.1037ZM48.391 20.5579L52.3702 18.3912L47.5881 9.60877L43.609 11.7754L48.391 20.5579ZM48.9645 18.896L52.9853 19.7293L55.0147 9.93738L50.9939 9.10404L48.9645 18.896Z" fill="#E82F5C" mask="url(#path-26-inside-11)"/>
<mask id="path-28-inside-12" fill="white">
<path d="M49 10.8311L45.0278 13L41 12.1689L44.9792 10L49 10.8311Z"/>
</mask>
<path d="M49 10.8311L51.3961 15.2196L63.3513 8.69194L50.0121 5.93464L49 10.8311ZM45.0278 13L44.0173 17.8968L45.8139 18.2676L47.4239 17.3885L45.0278 13ZM41 12.1689L38.6071 7.77866L26.6272 14.3084L39.9895 17.0657L41 12.1689ZM44.9792 10L45.9913 5.10351L44.196 4.73241L42.5863 5.60979L44.9792 10ZM46.6039 6.44268L42.6316 8.61155L47.4239 17.3885L51.3961 15.2196L46.6039 6.44268ZM46.0382 8.10317L42.0105 7.27204L39.9895 17.0657L44.0173 17.8968L46.0382 8.10317ZM43.3929 16.5591L47.3721 14.3902L42.5863 5.60979L38.6071 7.77866L43.3929 16.5591ZM43.967 14.8965L47.9879 15.7276L50.0121 5.93464L45.9913 5.10351L43.967 14.8965Z" fill="#E82F5C" mask="url(#path-28-inside-12)"/>
<g filter="url(#filter1_d)">
<path d="M5.5 180.5V95.5H90.5V180.5H5.5Z" stroke="#E82F5C"/>
</g>
<mask id="path-31-inside-13" fill="white">
<path d="M52.9908 115.614L42 121L43.8711 116.639L54 112L52.9908 115.614Z"/>
</mask>
<path d="M52.9908 115.614L42 121L43.8711 116.639L54 112L52.9908 115.614Z" fill="#E82F5C"/>
<path d="M52.9908 115.614L55.191 120.104L57.2037 119.118L57.8066 116.959L52.9908 115.614ZM42 121L37.405 119.029L32.0863 131.426L44.2002 125.49L42 121ZM43.8711 116.639L41.7892 112.093L40.0363 112.896L39.2761 114.667L43.8711 116.639ZM54 112L58.8158 113.345L61.7132 102.968L51.9181 107.454L54 112ZM50.7906 111.124L39.7998 116.51L44.2002 125.49L55.191 120.104L50.7906 111.124ZM46.595 122.971L48.4661 118.61L39.2761 114.667L37.405 119.029L46.595 122.971ZM45.953 121.185L56.0819 116.546L51.9181 107.454L41.7892 112.093L45.953 121.185ZM49.1842 110.655L48.175 114.27L57.8066 116.959L58.8158 113.345L49.1842 110.655Z" fill="#E82F5C" mask="url(#path-31-inside-13)"/>
<path d="M46.1071 136.659V134.159H43.6071H18.3333L17.8862 133.695H43.6071H46.1071V131.195V128.534L48.1358 127.351V131.195V133.695H50.6358H76.1139L76.7101 134.159H50.6358H48.1358V136.659V172.313L46.1071 173.89V136.659Z" fill="#E82F5C" stroke="#E82F5C" stroke-width="5"/>
<path d="M38.5 143.028V144.409L22.0511 156.863L21.1395 156.172L38.5 143.028Z" fill="#E82F5C" stroke="#E82F5C" stroke-width="5"/>
<path d="M72.8589 156.171L71.9441 156.864L55.5 144.409V143.028L72.8589 156.171Z" fill="#E82F5C" stroke="#E82F5C" stroke-width="5"/>
<mask id="path-36-inside-14" fill="white">
<path d="M68.8577 105.219H58.1789L55 101.93H68.8577V99.4686L73.0987 97V101.93H82.759L87 105.219H73.0987V124.711L68.8577 128V105.219Z"/>
</mask>
<path d="M68.8577 105.219H58.1789L55 101.93H68.8577V99.4686L73.0987 97V101.93H82.759L87 105.219H73.0987V124.711L68.8577 128V105.219Z" fill="#E82F5C"/>
<path d="M68.8577 105.219H73.8577V100.219H68.8577V105.219ZM58.1789 105.219L54.5837 108.694L56.0578 110.219H58.1789V105.219ZM55 101.93V96.9298H43.2136L51.4048 105.405L55 101.93ZM68.8577 101.93V106.93H73.8577V101.93H68.8577ZM68.8577 99.4686L66.3424 95.1473L63.8577 96.5936V99.4686H68.8577ZM73.0987 97H78.0987V88.3043L70.5834 92.6787L73.0987 97ZM73.0987 101.93H68.0987V106.93H73.0987V101.93ZM82.759 101.93L85.8232 97.9788L84.4707 96.9298H82.759V101.93ZM87 105.219V110.219H101.606L90.0642 101.268L87 105.219ZM73.0987 105.219V100.219H68.0987V105.219H73.0987ZM73.0987 124.711L76.1628 128.662L78.0987 127.161V124.711H73.0987ZM68.8577 128H63.8577V138.205L71.9219 131.951L68.8577 128ZM68.8577 100.219H58.1789V110.219H68.8577V100.219ZM61.7741 101.744L58.5952 98.455L51.4048 105.405L54.5837 108.694L61.7741 101.744ZM55 106.93H68.8577V96.9298H55V106.93ZM73.8577 101.93V99.4686H63.8577V101.93H73.8577ZM71.373 103.79L75.614 101.321L70.5834 92.6787L66.3424 95.1473L71.373 103.79ZM68.0987 97V101.93H78.0987V97H68.0987ZM73.0987 106.93H82.759V96.9298H73.0987V106.93ZM79.6949 105.881L83.9358 109.17L90.0642 101.268L85.8232 97.9788L79.6949 105.881ZM87 100.219H73.0987V110.219H87V100.219ZM68.0987 105.219V124.711H78.0987V105.219H68.0987ZM70.0345 120.76L65.7935 124.049L71.9219 131.951L76.1628 128.662L70.0345 120.76ZM73.8577 128V105.219H63.8577V128H73.8577Z" fill="#E82F5C" mask="url(#path-36-inside-14)"/>
<mask id="path-38-inside-15" fill="white">
<path d="M67 110.866L57.9464 120L55 117.567L67 106V110.866Z"/>
</mask>
<path d="M67 110.866L57.9464 120L55 117.567L67 106V110.866Z" fill="#E82F5C"/>
<path d="M67 110.866L70.5511 114.386L72 112.924V110.866H67ZM57.9464 120L54.7626 123.855L58.2832 126.763L61.4974 123.52L57.9464 120ZM55 117.567L51.53 113.967L47.4965 117.855L51.8162 121.422L55 117.567ZM67 106H72V94.2358L63.53 102.4L67 106ZM63.4489 107.346L54.3953 116.48L61.4974 123.52L70.5511 114.386L63.4489 107.346ZM61.1301 116.145L58.1838 113.712L51.8162 121.422L54.7626 123.855L61.1301 116.145ZM58.47 121.167L70.47 109.6L63.53 102.4L51.53 113.967L58.47 121.167ZM62 106V110.866H72V106H62Z" fill="#E82F5C" mask="url(#path-38-inside-15)"/>
<mask id="path-40-inside-16" fill="white">
<path d="M74 110.866L81.9358 120L85 117.567L74 106V110.866Z"/>
</mask>
<path d="M74 110.866L81.9358 120L85 117.567L74 106V110.866Z" fill="#E82F5C"/>
<path d="M74 110.866H69V112.735L70.2256 114.146L74 110.866ZM81.9358 120L78.1614 123.279L81.2988 126.89L85.045 123.916L81.9358 120ZM85 117.567L88.1092 121.483L92.3907 118.083L88.6232 114.121L85 117.567ZM74 106L77.6232 102.554L69 93.4868V106H74ZM70.2256 114.146L78.1614 123.279L85.7102 116.721L77.7744 107.587L70.2256 114.146ZM85.045 123.916L88.1092 121.483L81.8908 113.651L78.8266 116.084L85.045 123.916ZM88.6232 114.121L77.6232 102.554L70.3768 109.446L81.3768 121.013L88.6232 114.121ZM69 106V110.866H79V106H69Z" fill="#E82F5C" mask="url(#path-40-inside-16)"/>
<mask id="path-42-inside-17" fill="white">
<path d="M21.8577 105.219H11.1789L8 101.93H21.8577V99.4686L26.0914 97V101.93H35.759L40 105.219H26.0914V124.711L21.8577 128V105.219Z"/>
</mask>
<path d="M21.8577 105.219H11.1789L8 101.93H21.8577V99.4686L26.0914 97V101.93H35.759L40 105.219H26.0914V124.711L21.8577 128V105.219Z" fill="#E82F5C"/>
<path d="M21.8577 105.219H26.8577V100.219H21.8577V105.219ZM11.1789 105.219L7.58372 108.694L9.05782 110.219H11.1789V105.219ZM8 101.93V96.9298H-3.7864L4.40481 105.405L8 101.93ZM21.8577 101.93V106.93H26.8577V101.93H21.8577ZM21.8577 99.4686L19.3392 95.1492L16.8577 96.5961V99.4686H21.8577ZM26.0914 97H31.0914V88.2967L23.5729 92.6806L26.0914 97ZM26.0914 101.93H21.0914V106.93H26.0914V101.93ZM35.759 101.93L38.8232 97.9788L37.4706 96.9298H35.759V101.93ZM40 105.219V110.219H54.6061L43.0642 101.268L40 105.219ZM26.0914 105.219V100.219H21.0914V105.219H26.0914ZM26.0914 124.711L29.1588 128.66L31.0914 127.158V124.711H26.0914ZM21.8577 128H16.8577V138.216L24.9251 131.949L21.8577 128ZM21.8577 100.219H11.1789V110.219H21.8577V100.219ZM14.7741 101.744L11.5952 98.455L4.40481 105.405L7.58372 108.694L14.7741 101.744ZM8 106.93H21.8577V96.9298H8V106.93ZM26.8577 101.93V99.4686H16.8577V101.93H26.8577ZM24.3762 103.788L28.6099 101.319L23.5729 92.6806L19.3392 95.1492L24.3762 103.788ZM21.0914 97V101.93H31.0914V97H21.0914ZM26.0914 106.93H35.759V96.9298H26.0914V106.93ZM32.6949 105.881L36.9358 109.17L43.0642 101.268L38.8232 97.9788L32.6949 105.881ZM40 100.219H26.0914V110.219H40V100.219ZM21.0914 105.219V124.711H31.0914V105.219H21.0914ZM23.0239 120.763L18.7903 124.051L24.9251 131.949L29.1588 128.66L23.0239 120.763ZM26.8577 128V105.219H16.8577V128H26.8577Z" fill="#E82F5C" mask="url(#path-42-inside-17)"/>
<mask id="path-44-inside-18" fill="white">
<path d="M21 110.866L11.9464 120L9 117.567L21 106V110.866Z"/>
</mask>
<path d="M21 110.866L11.9464 120L9 117.567L21 106V110.866Z" fill="#E82F5C"/>
<path d="M21 110.866L24.5511 114.386L26 112.924V110.866H21ZM11.9464 120L8.76261 123.855L12.2832 126.763L15.4974 123.52L11.9464 120ZM9 117.567L5.53003 113.967L1.49647 117.855L5.81625 121.422L9 117.567ZM21 106H26V94.2358L17.53 102.4L21 106ZM17.4489 107.346L8.39529 116.48L15.4974 123.52L24.5511 114.386L17.4489 107.346ZM15.1301 116.145L12.1838 113.712L5.81625 121.422L8.76261 123.855L15.1301 116.145ZM12.47 121.167L24.47 109.6L17.53 102.4L5.53003 113.967L12.47 121.167ZM16 106V110.866H26V106H16Z" fill="#E82F5C" mask="url(#path-44-inside-18)"/>
<mask id="path-46-inside-19" fill="white">
<path d="M27 110.866L34.9358 120L38 117.567L27 106V110.866Z"/>
</mask>
<path d="M27 110.866L34.9358 120L38 117.567L27 106V110.866Z" fill="#E82F5C"/>
<path d="M27 110.866H22V112.735L23.2256 114.146L27 110.866ZM34.9358 120L31.1614 123.279L34.2988 126.89L38.045 123.916L34.9358 120ZM38 117.567L41.1092 121.483L45.3907 118.083L41.6232 114.121L38 117.567ZM27 106L30.6232 102.554L22 93.4868V106H27ZM23.2256 114.146L31.1614 123.279L38.7102 116.721L30.7744 107.587L23.2256 114.146ZM38.045 123.916L41.1092 121.483L34.8908 113.651L31.8266 116.084L38.045 123.916ZM41.6232 114.121L30.6232 102.554L23.3768 109.446L34.3768 121.013L41.6232 114.121ZM22 106V110.866H32V106H22Z" fill="#E82F5C" mask="url(#path-46-inside-19)"/>
<mask id="path-48-inside-20" fill="white">
<path d="M54 118.833L50.0278 121L46 120.167L49.9792 118L54 118.833Z"/>
</mask>
<path d="M54 118.833L50.0278 121L46 120.167L49.9792 118L54 118.833Z" fill="#E82F5C"/>
<path d="M54 118.833L56.3943 123.223L68.3504 116.701L55.0147 113.937L54 118.833ZM50.0278 121L49.0147 125.896L50.8114 126.268L52.422 125.389L50.0278 121ZM46 120.167L43.609 115.775L31.6281 122.299L44.987 125.063L46 120.167ZM49.9792 118L50.9939 113.104L49.1985 112.732L47.5881 113.609L49.9792 118ZM51.6057 114.444L47.6335 116.611L52.422 125.389L56.3943 123.223L51.6057 114.444ZM51.0408 116.104L47.013 115.27L44.987 125.063L49.0147 125.896L51.0408 116.104ZM48.391 124.558L52.3702 122.391L47.5881 113.609L43.609 115.775L48.391 124.558ZM48.9645 122.896L52.9853 123.729L55.0147 113.937L50.9939 113.104L48.9645 122.896Z" fill="#E82F5C" mask="url(#path-48-inside-20)"/>
<mask id="path-50-inside-21" fill="white">
<path d="M49 113.833L45.0278 116L41 115.167L44.9792 113L49 113.833Z"/>
</mask>
<path d="M49 113.833L45.0278 116L41 115.167L44.9792 113L49 113.833Z" fill="#E82F5C"/>
<path d="M49 113.833L51.3943 118.223L63.3505 111.701L50.0147 108.937L49 113.833ZM45.0278 116L44.0147 120.896L45.8114 121.268L47.422 120.389L45.0278 116ZM41 115.167L38.609 110.775L26.628 117.299L39.987 120.063L41 115.167ZM44.9792 113L45.9939 108.104L44.1985 107.732L42.5881 108.609L44.9792 113ZM46.6057 109.444L42.6335 111.611L47.422 120.389L51.3943 118.223L46.6057 109.444ZM46.0408 111.104L42.013 110.27L39.987 120.063L44.0147 120.896L46.0408 111.104ZM43.391 119.558L47.3702 117.391L42.5881 108.609L38.609 110.775L43.391 119.558ZM43.9645 117.896L47.9853 118.729L50.0147 108.937L45.9939 108.104L43.9645 117.896Z" fill="#E82F5C" mask="url(#path-50-inside-21)"/>
<mask id="path-52-inside-22" fill="white">
<path d="M52.9908 103.617L42 109L43.8711 104.642L54 100L52.9908 103.617Z"/>
</mask>
<path d="M52.9908 103.617L42 109L43.8711 104.642L54 100L52.9908 103.617Z" fill="#E82F5C"/>
<path d="M52.9908 103.617L55.19 108.107L57.2041 107.121L57.8068 104.961L52.9908 103.617ZM42 109L37.4056 107.027L32.0823 119.425L44.1992 113.49L42 109ZM43.8711 104.642L41.7878 100.097L40.0367 100.9L39.2767 102.67L43.8711 104.642ZM54 100L58.8161 101.344L61.7118 90.9653L51.9167 95.4547L54 100ZM50.7916 99.1267L39.8008 104.51L44.1992 113.49L55.19 108.107L50.7916 99.1267ZM46.5944 110.973L48.4655 106.615L39.2767 102.67L37.4056 107.027L46.5944 110.973ZM45.9544 109.188L56.0833 104.545L51.9167 95.4547L41.7878 100.097L45.9544 109.188ZM49.1839 98.6563L48.1747 102.273L57.8068 104.961L58.8161 101.344L49.1839 98.6563Z" fill="#E82F5C" mask="url(#path-52-inside-22)"/>
<mask id="path-54-inside-23" fill="white">
<path d="M54 105.833L50.0278 108L46 107.167L49.9792 105L54 105.833Z"/>
</mask>
<path d="M54 105.833L50.0278 108L46 107.167L49.9792 105L54 105.833Z" fill="#E82F5C"/>
<path d="M54 105.833L56.3943 110.223L68.3505 103.701L55.0147 100.937L54 105.833ZM50.0278 108L49.0148 112.896L50.8114 113.268L52.422 112.389L50.0278 108ZM46 107.167L43.609 102.775L31.628 109.299L44.987 112.063L46 107.167ZM49.9792 105L50.9939 100.104L49.1985 99.7319L47.5881 100.609L49.9792 105ZM51.6057 101.444L47.6335 103.611L52.422 112.389L56.3943 110.223L51.6057 101.444ZM51.0408 103.104L47.013 102.27L44.987 112.063L49.0148 112.896L51.0408 103.104ZM48.391 111.558L52.3702 109.391L47.5881 100.609L43.609 102.775L48.391 111.558ZM48.9645 109.896L52.9853 110.729L55.0147 100.937L50.9939 100.104L48.9645 109.896Z" fill="#E82F5C" mask="url(#path-54-inside-23)"/>
<mask id="path-56-inside-24" fill="white">
<path d="M49 101.831L45.0278 104L41 103.169L44.9792 101L49 101.831Z"/>
</mask>
<path d="M49 101.831L45.0278 104L41 103.169L44.9792 101L49 101.831Z" fill="#E82F5C"/>
<path d="M49 101.831L51.3961 106.22L63.3513 99.6919L50.0121 96.9346L49 101.831ZM45.0278 104L44.0173 108.897L45.8139 109.268L47.4239 108.388L45.0278 104ZM41 103.169L38.6071 98.7787L26.6272 105.308L39.9895 108.066L41 103.169ZM44.9792 101L45.9913 96.1035L44.196 95.7324L42.5862 96.6098L44.9792 101ZM46.6039 97.4427L42.6316 99.6116L47.4239 108.388L51.3961 106.22L46.6039 97.4427ZM46.0382 99.1032L42.0105 98.272L39.9895 108.066L44.0173 108.897L46.0382 99.1032ZM43.3929 107.559L47.3721 105.39L42.5862 96.6098L38.6071 98.7787L43.3929 107.559ZM43.967 105.896L47.9879 106.728L50.0121 96.9346L45.9913 96.1035L43.967 105.896Z" fill="#E82F5C" mask="url(#path-56-inside-24)"/>
<g filter="url(#filter2_d)">
<path d="M95.5 89.5V4.5H180.5V89.5H95.5Z" stroke="#E82F5C"/>
</g>
<mask id="path-59-inside-25" fill="white">
<path d="M142.991 24.6142L132 30L133.871 25.6387L144 21L142.991 24.6142Z"/>
</mask>
<path d="M142.991 24.6142L132 30L133.871 25.6387L144 21L142.991 24.6142Z" fill="#E82F5C"/>
<path d="M142.991 24.6142L145.191 29.1041L147.204 28.1178L147.807 25.959L142.991 24.6142ZM132 30L127.405 28.0286L122.086 40.426L134.2 34.4899L132 30ZM133.871 25.6387L131.789 21.0928L130.036 21.8956L129.276 23.6674L133.871 25.6387ZM144 21L148.816 22.3447L151.713 11.9682L141.918 16.454L144 21ZM140.791 20.1243L129.8 25.5101L134.2 34.4899L145.191 29.1041L140.791 20.1243ZM136.595 31.9714L138.466 27.6101L129.276 23.6674L127.405 28.0286L136.595 31.9714ZM135.953 30.1847L146.082 25.546L141.918 16.454L131.789 21.0928L135.953 30.1847ZM139.184 19.6553L138.175 23.2695L147.807 25.959L148.816 22.3447L139.184 19.6553Z" fill="#E82F5C" mask="url(#path-59-inside-25)"/>
<path d="M136.107 45.6585V43.1585H133.607H108.333L107.886 42.6951H133.607H136.107V40.1951V37.5339L138.136 36.3512V40.1951V42.6951H140.636H166.114L166.71 43.1585H140.636H138.136V45.6585V81.3134L136.107 82.8903V45.6585Z" fill="#E82F5C" stroke="#E82F5C" stroke-width="5"/>
<path d="M128.5 52.0284V53.409L112.051 65.8633L111.14 65.172L128.5 52.0284Z" fill="#E82F5C" stroke="#E82F5C" stroke-width="5"/>
<path d="M162.859 65.1709L161.944 65.8638L145.5 53.4092V52.0284L162.859 65.1709Z" fill="#E82F5C" stroke="#E82F5C" stroke-width="5"/>
<mask id="path-64-inside-26" fill="white">
<path d="M158.858 14.2188H148.179L145 10.9298H158.858V8.46857L163.099 6V10.9298H172.759L177 14.2188H163.099V33.711L158.858 37V14.2188Z"/>
</mask>
<path d="M158.858 14.2188H148.179L145 10.9298H158.858V8.46857L163.099 6V10.9298H172.759L177 14.2188H163.099V33.711L158.858 37V14.2188Z" fill="#E82F5C"/>
<path d="M158.858 14.2188H163.858V9.21881H158.858V14.2188ZM148.179 14.2188L144.584 17.6937L146.058 19.2188H148.179V14.2188ZM145 10.9298V5.92983H133.214L141.405 14.4047L145 10.9298ZM158.858 10.9298V15.9298H163.858V10.9298H158.858ZM158.858 8.46857L156.342 4.14732L153.858 5.5936V8.46857H158.858ZM163.099 6H168.099V-2.69575L160.583 1.67875L163.099 6ZM163.099 10.9298H158.099V15.9298H163.099V10.9298ZM172.759 10.9298L175.823 6.97876L174.471 5.92983H172.759V10.9298ZM177 14.2188V19.2188H191.606L180.064 10.2677L177 14.2188ZM163.099 14.2188V9.21881H158.099V14.2188H163.099ZM163.099 33.711L166.163 37.6621L168.099 36.1608V33.711H163.099ZM158.858 37H153.858V47.205L161.922 40.9511L158.858 37ZM158.858 9.21881H148.179V19.2188H158.858V9.21881ZM151.774 10.7439L148.595 7.45497L141.405 14.4047L144.584 17.6937L151.774 10.7439ZM145 15.9298H158.858V5.92983H145V15.9298ZM163.858 10.9298V8.46857H153.858V10.9298H163.858ZM161.373 12.7898L165.614 10.3213L160.583 1.67875L156.342 4.14732L161.373 12.7898ZM158.099 6V10.9298H168.099V6H158.099ZM163.099 15.9298H172.759V5.92983H163.099V15.9298ZM169.695 14.8809L173.936 18.1699L180.064 10.2677L175.823 6.97876L169.695 14.8809ZM177 9.21881H163.099V19.2188H177V9.21881ZM158.099 14.2188V33.711H168.099V14.2188H158.099ZM160.035 29.76L155.794 33.0489L161.922 40.9511L166.163 37.6621L160.035 29.76ZM163.858 37V14.2188H153.858V37H163.858Z" fill="#E82F5C" mask="url(#path-64-inside-26)"/>
<mask id="path-66-inside-27" fill="white">
<path d="M157 19.8662L147.946 29L145 26.5669L157 15V19.8662Z"/>
</mask>
<path d="M157 19.8662L147.946 29L145 26.5669L157 15V19.8662Z" fill="#E82F5C"/>
<path d="M157 19.8662L160.551 23.3861L162 21.9244V19.8662H157ZM147.946 29L144.763 32.8553L148.283 35.7626L151.497 32.5199L147.946 29ZM145 26.5669L141.53 22.967L137.496 26.855L141.816 30.4222L145 26.5669ZM157 15H162V3.23583L153.53 11.4001L157 15ZM153.449 16.3463L144.395 25.4801L151.497 32.5199L160.551 23.3861L153.449 16.3463ZM151.13 25.1447L148.184 22.7115L141.816 30.4222L144.763 32.8553L151.13 25.1447ZM148.47 30.1668L160.47 18.5999L153.53 11.4001L141.53 22.967L148.47 30.1668ZM152 15V19.8662H162V15H152Z" fill="#E82F5C" mask="url(#path-66-inside-27)"/>
<mask id="path-68-inside-28" fill="white">
<path d="M164 19.8662L171.936 29L175 26.5669L164 15V19.8662Z"/>
</mask>
<path d="M164 19.8662L171.936 29L175 26.5669L164 15V19.8662Z" fill="#E82F5C"/>
<path d="M164 19.8662H159V21.7349L160.226 23.1456L164 19.8662ZM171.936 29L168.161 32.2793L171.299 35.8903L175.045 32.9157L171.936 29ZM175 26.5669L178.109 30.4826L182.391 27.0829L178.623 23.1213L175 26.5669ZM164 15L167.623 11.5544L159 2.48676V15H164ZM160.226 23.1456L168.161 32.2793L175.71 25.7207L167.774 16.5869L160.226 23.1456ZM175.045 32.9157L178.109 30.4826L171.891 22.6512L168.827 25.0843L175.045 32.9157ZM178.623 23.1213L167.623 11.5544L160.377 18.4456L171.377 30.0125L178.623 23.1213ZM159 15V19.8662H169V15H159Z" fill="#E82F5C" mask="url(#path-68-inside-28)"/>
<mask id="path-70-inside-29" fill="white">
<path d="M111.858 14.2188H101.179L98 10.9298H111.858V8.46857L116.091 6V10.9298H125.759L130 14.2188H116.091V33.711L111.858 37V14.2188Z"/>
</mask>
<path d="M111.858 14.2188H101.179L98 10.9298H111.858V8.46857L116.091 6V10.9298H125.759L130 14.2188H116.091V33.711L111.858 37V14.2188Z" fill="#E82F5C"/>
<path d="M111.858 14.2188H116.858V9.21881H111.858V14.2188ZM101.179 14.2188L97.5837 17.6937L99.0578 19.2188H101.179V14.2188ZM98 10.9298V5.92983H86.2136L94.4048 14.4047L98 10.9298ZM111.858 10.9298V15.9298H116.858V10.9298H111.858ZM111.858 8.46857L109.339 4.14919L106.858 5.59608V8.46857H111.858ZM116.091 6H121.091V-2.70326L113.573 1.68062L116.091 6ZM116.091 10.9298H111.091V15.9298H116.091V10.9298ZM125.759 10.9298L128.823 6.97876L127.471 5.92983H125.759V10.9298ZM130 14.2188V19.2188H144.606L133.064 10.2677L130 14.2188ZM116.091 14.2188V9.21881H111.091V14.2188H116.091ZM116.091 33.711L119.159 37.6595L121.091 36.1582V33.711H116.091ZM111.858 37H106.858V47.2158L114.925 40.9485L111.858 37ZM111.858 9.21881H101.179V19.2188H111.858V9.21881ZM104.774 10.7439L101.595 7.45497L94.4048 14.4047L97.5837 17.6937L104.774 10.7439ZM98 15.9298H111.858V5.92983H98V15.9298ZM116.858 10.9298V8.46857H106.858V10.9298H116.858ZM114.376 12.7879L118.61 10.3194L113.573 1.68062L109.339 4.14919L114.376 12.7879ZM111.091 6V10.9298H121.091V6H111.091ZM116.091 15.9298H125.759V5.92983H116.091V15.9298ZM122.695 14.8809L126.936 18.1699L133.064 10.2677L128.823 6.97876L122.695 14.8809ZM130 9.21881H116.091V19.2188H130V9.21881ZM111.091 14.2188V33.711H121.091V14.2188H111.091ZM113.024 29.7625L108.79 33.0515L114.925 40.9485L119.159 37.6595L113.024 29.7625ZM116.858 37V14.2188H106.858V37H116.858Z" fill="#E82F5C" mask="url(#path-70-inside-29)"/>
<mask id="path-72-inside-30" fill="white">
<path d="M111 19.8662L101.946 29L99 26.5669L111 15V19.8662Z"/>
</mask>
<path d="M111 19.8662L101.946 29L99 26.5669L111 15V19.8662Z" fill="#E82F5C"/>
<path d="M111 19.8662L114.551 23.3861L116 21.9244V19.8662H111ZM101.946 29L98.7626 32.8554L102.283 35.7626L105.497 32.5199L101.946 29ZM99 26.5669L95.53 22.967L91.4965 26.855L95.8162 30.4222L99 26.5669ZM111 15H116V3.23583L107.53 11.4001L111 15ZM107.449 16.3463L98.3953 25.4801L105.497 32.5199L114.551 23.3861L107.449 16.3463ZM105.13 25.1447L102.184 22.7115L95.8162 30.4222L98.7626 32.8554L105.13 25.1447ZM102.47 30.1668L114.47 18.5999L107.53 11.4001L95.53 22.967L102.47 30.1668ZM106 15V19.8662H116V15H106Z" fill="#E82F5C" mask="url(#path-72-inside-30)"/>
<mask id="path-74-inside-31" fill="white">
<path d="M117 19.8662L124.936 29L128 26.5669L117 15V19.8662Z"/>
</mask>
<path d="M117 19.8662L124.936 29L128 26.5669L117 15V19.8662Z" fill="#E82F5C"/>
<path d="M117 19.8662H112V21.7349L113.226 23.1456L117 19.8662ZM124.936 29L121.161 32.2793L124.299 35.8903L128.045 32.9157L124.936 29ZM128 26.5669L131.109 30.4826L135.391 27.0829L131.623 23.1213L128 26.5669ZM117 15L120.623 11.5544L112 2.48676V15H117ZM113.226 23.1456L121.161 32.2793L128.71 25.7207L120.774 16.5869L113.226 23.1456ZM128.045 32.9157L131.109 30.4826L124.891 22.6512L121.827 25.0843L128.045 32.9157ZM131.623 23.1213L120.623 11.5544L113.377 18.4456L124.377 30.0125L131.623 23.1213ZM112 15V19.8662H122V15H112Z" fill="#E82F5C" mask="url(#path-74-inside-31)"/>
<mask id="path-76-inside-32" fill="white">
<path d="M144 27.8333L140.028 30L136 29.1667L139.979 27L144 27.8333Z"/>
</mask>
<path d="M144 27.8333L140.028 30L136 29.1667L139.979 27L144 27.8333Z" fill="#E82F5C"/>
<path d="M144 27.8333L146.394 32.2228L158.35 25.7013L145.015 22.9374L144 27.8333ZM140.028 30L139.015 34.8963L140.811 35.268L142.422 34.3895L140.028 30ZM136 29.1667L133.609 24.7754L121.628 31.2991L134.987 34.063L136 29.1667ZM139.979 27L140.994 22.104L139.198 21.7319L137.588 22.6088L139.979 27ZM141.606 23.4439L137.634 25.6105L142.422 34.3895L146.394 32.2228L141.606 23.4439ZM141.041 25.1037L137.013 24.2704L134.987 34.063L139.015 34.8963L141.041 25.1037ZM138.391 33.5579L142.37 31.3912L137.588 22.6088L133.609 24.7754L138.391 33.5579ZM138.964 31.896L142.985 32.7293L145.015 22.9374L140.994 22.104L138.964 31.896Z" fill="#E82F5C" mask="url(#path-76-inside-32)"/>
<mask id="path-78-inside-33" fill="white">
<path d="M139 22.8333L135.028 25L131 24.1667L134.979 22L139 22.8333Z"/>
</mask>
<path d="M139 22.8333L135.028 25L131 24.1667L134.979 22L139 22.8333Z" fill="#E82F5C"/>
<path d="M139 22.8333L141.394 27.2228L153.35 20.7013L140.015 17.9374L139 22.8333ZM135.028 25L134.015 29.8963L135.811 30.268L137.422 29.3895L135.028 25ZM131 24.1667L128.609 19.7754L116.628 26.299L129.987 29.063L131 24.1667ZM134.979 22L135.994 17.104L134.198 16.7319L132.588 17.6088L134.979 22ZM136.606 18.4439L132.634 20.6105L137.422 29.3895L141.394 27.2228L136.606 18.4439ZM136.041 20.1037L132.013 19.2704L129.987 29.063L134.015 29.8963L136.041 20.1037ZM133.391 28.5579L137.37 26.3912L132.588 17.6088L128.609 19.7754L133.391 28.5579ZM133.964 26.896L137.985 27.7293L140.015 17.9374L135.994 17.104L133.964 26.896Z" fill="#E82F5C" mask="url(#path-78-inside-33)"/>
<mask id="path-80-inside-34" fill="white">
<path d="M142.991 12.6171L132 18L133.871 13.6424L144 9L142.991 12.6171Z"/>
</mask>
<path d="M142.991 12.6171L132 18L133.871 13.6424L144 9L142.991 12.6171Z" fill="#E82F5C"/>
<path d="M142.991 12.6171L145.19 17.1074L147.204 16.121L147.807 13.9608L142.991 12.6171ZM132 18L127.406 16.0272L122.082 28.4248L134.199 22.4904L132 18ZM133.871 13.6424L131.788 9.09708L130.037 9.89966L129.277 11.6696L133.871 13.6424ZM144 9L148.816 10.3437L151.712 -0.0347033L141.917 4.45467L144 9ZM140.792 8.12671L129.801 13.5096L134.199 22.4904L145.19 17.1074L140.792 8.12671ZM136.594 19.9728L138.465 15.6152L129.277 11.6696L127.406 16.0272L136.594 19.9728ZM135.954 18.1877L146.083 13.5453L141.917 4.45467L131.788 9.09708L135.954 18.1877ZM139.184 7.65626L138.175 11.2733L147.807 13.9608L148.816 10.3437L139.184 7.65626Z" fill="#E82F5C" mask="url(#path-80-inside-34)"/>
<mask id="path-82-inside-35" fill="white">
<path d="M144 14.8333L140.028 17L136 16.1667L139.979 14L144 14.8333Z"/>
</mask>
<path d="M144 14.8333L140.028 17L136 16.1667L139.979 14L144 14.8333Z" fill="#E82F5C"/>
<path d="M144 14.8333L146.394 19.2228L158.35 12.7013L145.015 9.93738L144 14.8333ZM140.028 17L139.015 21.8963L140.811 22.268L142.422 21.3895L140.028 17ZM136 16.1667L133.609 11.7754L121.628 18.2991L134.987 21.063L136 16.1667ZM139.979 14L140.994 9.10404L139.198 8.73194L137.588 9.60877L139.979 14ZM141.606 10.4439L137.634 12.6105L142.422 21.3895L146.394 19.2228L141.606 10.4439ZM141.041 12.1037L137.013 11.2704L134.987 21.063L139.015 21.8963L141.041 12.1037ZM138.391 20.5579L142.37 18.3912L137.588 9.60877L133.609 11.7754L138.391 20.5579ZM138.964 18.896L142.985 19.7293L145.015 9.93738L140.994 9.10404L138.964 18.896Z" fill="#E82F5C" mask="url(#path-82-inside-35)"/>
<mask id="path-84-inside-36" fill="white">
<path d="M139 10.8311L135.028 13L131 12.1689L134.979 10L139 10.8311Z"/>
</mask>
<path d="M139 10.8311L135.028 13L131 12.1689L134.979 10L139 10.8311Z" fill="#E82F5C"/>
<path d="M139 10.8311L141.396 15.2196L153.351 8.69194L140.012 5.93464L139 10.8311ZM135.028 13L134.017 17.8968L135.814 18.2676L137.424 17.3885L135.028 13ZM131 12.1689L128.607 7.77866L116.627 14.3084L129.99 17.0657L131 12.1689ZM134.979 10L135.991 5.10351L134.196 4.73241L132.586 5.60979L134.979 10ZM136.604 6.44268L132.632 8.61155L137.424 17.3885L141.396 15.2196L136.604 6.44268ZM136.038 8.10317L132.01 7.27204L129.99 17.0657L134.017 17.8968L136.038 8.10317ZM133.393 16.5591L137.372 14.3902L132.586 5.60979L128.607 7.77866L133.393 16.5591ZM133.967 14.8965L137.988 15.7276L140.012 5.93464L135.991 5.10351L133.967 14.8965Z" fill="#E82F5C" mask="url(#path-84-inside-36)"/>
<g filter="url(#filter3_d)">
<path d="M95.5 180.5V95.5H180.5V180.5H95.5Z" stroke="#E82F5C"/>
</g>
<mask id="path-87-inside-37" fill="white">
<path d="M142.991 115.614L132 121L133.871 116.639L144 112L142.991 115.614Z"/>
</mask>
<path d="M142.991 115.614L145.191 120.104L147.204 119.118L147.807 116.959L142.991 115.614ZM132 121L127.405 119.029L122.086 131.426L134.2 125.49L132 121ZM133.871 116.639L131.789 112.093L130.036 112.896L129.276 114.667L133.871 116.639ZM144 112L148.816 113.345L151.713 102.968L141.918 107.454L144 112ZM140.791 111.124L129.8 116.51L134.2 125.49L145.191 120.104L140.791 111.124ZM136.595 122.971L138.466 118.61L129.276 114.667L127.405 119.029L136.595 122.971ZM135.953 121.185L146.082 116.546L141.918 107.454L131.789 112.093L135.953 121.185ZM139.184 110.655L138.175 114.27L147.807 116.959L148.816 113.345L139.184 110.655Z" fill="#E82F5C" mask="url(#path-87-inside-37)"/>
<path d="M136.107 136.659V134.159H133.607H108.333L107.886 133.695H133.607H136.107V131.195V128.534L138.136 127.351V131.195V133.695H140.636H166.114L166.71 134.159H140.636H138.136V136.659V172.313L136.107 173.89V136.659Z" stroke="#E82F5C" stroke-width="5"/>
<path d="M128.5 143.028V144.409L112.051 156.863L111.14 156.172L128.5 143.028Z" stroke="#E82F5C" stroke-width="5"/>
<path d="M162.859 156.171L161.944 156.864L145.5 144.409V143.028L162.859 156.171Z" stroke="#E82F5C" stroke-width="5"/>
<mask id="path-92-inside-38" fill="white">
<path d="M158.858 105.219H148.179L145 101.93H158.858V99.4686L163.099 97V101.93H172.759L177 105.219H163.099V124.711L158.858 128V105.219Z"/>
</mask>
<path d="M158.858 105.219H163.858V100.219H158.858V105.219ZM148.179 105.219L144.584 108.694L146.058 110.219H148.179V105.219ZM145 101.93V96.9298H133.214L141.405 105.405L145 101.93ZM158.858 101.93V106.93H163.858V101.93H158.858ZM158.858 99.4686L156.342 95.1473L153.858 96.5936V99.4686H158.858ZM163.099 97H168.099V88.3043L160.583 92.6787L163.099 97ZM163.099 101.93H158.099V106.93H163.099V101.93ZM172.759 101.93L175.823 97.9788L174.471 96.9298H172.759V101.93ZM177 105.219V110.219H191.606L180.064 101.268L177 105.219ZM163.099 105.219V100.219H158.099V105.219H163.099ZM163.099 124.711L166.163 128.662L168.099 127.161V124.711H163.099ZM158.858 128H153.858V138.205L161.922 131.951L158.858 128ZM158.858 100.219H148.179V110.219H158.858V100.219ZM151.774 101.744L148.595 98.455L141.405 105.405L144.584 108.694L151.774 101.744ZM145 106.93H158.858V96.9298H145V106.93ZM163.858 101.93V99.4686H153.858V101.93H163.858ZM161.373 103.79L165.614 101.321L160.583 92.6787L156.342 95.1473L161.373 103.79ZM158.099 97V101.93H168.099V97H158.099ZM163.099 106.93H172.759V96.9298H163.099V106.93ZM169.695 105.881L173.936 109.17L180.064 101.268L175.823 97.9788L169.695 105.881ZM177 100.219H163.099V110.219H177V100.219ZM158.099 105.219V124.711H168.099V105.219H158.099ZM160.035 120.76L155.794 124.049L161.922 131.951L166.163 128.662L160.035 120.76ZM163.858 128V105.219H153.858V128H163.858Z" fill="#E82F5C" mask="url(#path-92-inside-38)"/>
<mask id="path-94-inside-39" fill="white">
<path d="M157 110.866L147.946 120L145 117.567L157 106V110.866Z"/>
</mask>
<path d="M157 110.866L160.551 114.386L162 112.924V110.866H157ZM147.946 120L144.763 123.855L148.283 126.763L151.497 123.52L147.946 120ZM145 117.567L141.53 113.967L137.496 117.855L141.816 121.422L145 117.567ZM157 106H162V94.2358L153.53 102.4L157 106ZM153.449 107.346L144.395 116.48L151.497 123.52L160.551 114.386L153.449 107.346ZM151.13 116.145L148.184 113.712L141.816 121.422L144.763 123.855L151.13 116.145ZM148.47 121.167L160.47 109.6L153.53 102.4L141.53 113.967L148.47 121.167ZM152 106V110.866H162V106H152Z" fill="#E82F5C" mask="url(#path-94-inside-39)"/>
<mask id="path-96-inside-40" fill="white">
<path d="M164 110.866L171.936 120L175 117.567L164 106V110.866Z"/>
</mask>
<path d="M164 110.866H159V112.735L160.226 114.146L164 110.866ZM171.936 120L168.161 123.279L171.299 126.89L175.045 123.916L171.936 120ZM175 117.567L178.109 121.483L182.391 118.083L178.623 114.121L175 117.567ZM164 106L167.623 102.554L159 93.4868V106H164ZM160.226 114.146L168.161 123.279L175.71 116.721L167.774 107.587L160.226 114.146ZM175.045 123.916L178.109 121.483L171.891 113.651L168.827 116.084L175.045 123.916ZM178.623 114.121L167.623 102.554L160.377 109.446L171.377 121.013L178.623 114.121ZM159 106V110.866H169V106H159Z" fill="#E82F5C" mask="url(#path-96-inside-40)"/>
<mask id="path-98-inside-41" fill="white">
<path d="M111.858 105.219H101.179L98 101.93H111.858V99.4686L116.091 97V101.93H125.759L130 105.219H116.091V124.711L111.858 128V105.219Z"/>
</mask>
<path d="M111.858 105.219H116.858V100.219H111.858V105.219ZM101.179 105.219L97.5837 108.694L99.0578 110.219H101.179V105.219ZM98 101.93V96.9298H86.2136L94.4048 105.405L98 101.93ZM111.858 101.93V106.93H116.858V101.93H111.858ZM111.858 99.4686L109.339 95.1492L106.858 96.5961V99.4686H111.858ZM116.091 97H121.091V88.2967L113.573 92.6806L116.091 97ZM116.091 101.93H111.091V106.93H116.091V101.93ZM125.759 101.93L128.823 97.9788L127.471 96.9298H125.759V101.93ZM130 105.219V110.219H144.606L133.064 101.268L130 105.219ZM116.091 105.219V100.219H111.091V105.219H116.091ZM116.091 124.711L119.159 128.66L121.091 127.158V124.711H116.091ZM111.858 128H106.858V138.216L114.925 131.949L111.858 128ZM111.858 100.219H101.179V110.219H111.858V100.219ZM104.774 101.744L101.595 98.455L94.4048 105.405L97.5837 108.694L104.774 101.744ZM98 106.93H111.858V96.9298H98V106.93ZM116.858 101.93V99.4686H106.858V101.93H116.858ZM114.376 103.788L118.61 101.319L113.573 92.6806L109.339 95.1492L114.376 103.788ZM111.091 97V101.93H121.091V97H111.091ZM116.091 106.93H125.759V96.9298H116.091V106.93ZM122.695 105.881L126.936 109.17L133.064 101.268L128.823 97.9788L122.695 105.881ZM130 100.219H116.091V110.219H130V100.219ZM111.091 105.219V124.711H121.091V105.219H111.091ZM113.024 120.763L108.79 124.051L114.925 131.949L119.159 128.66L113.024 120.763ZM116.858 128V105.219H106.858V128H116.858Z" fill="#E82F5C" mask="url(#path-98-inside-41)"/>
<mask id="path-100-inside-42" fill="white">
<path d="M111 110.866L101.946 120L99 117.567L111 106V110.866Z"/>
</mask>
<path d="M111 110.866L114.551 114.386L116 112.924V110.866H111ZM101.946 120L98.7626 123.855L102.283 126.763L105.497 123.52L101.946 120ZM99 117.567L95.53 113.967L91.4965 117.855L95.8162 121.422L99 117.567ZM111 106H116V94.2358L107.53 102.4L111 106ZM107.449 107.346L98.3953 116.48L105.497 123.52L114.551 114.386L107.449 107.346ZM105.13 116.145L102.184 113.712L95.8162 121.422L98.7626 123.855L105.13 116.145ZM102.47 121.167L114.47 109.6L107.53 102.4L95.53 113.967L102.47 121.167ZM106 106V110.866H116V106H106Z" fill="#E82F5C" mask="url(#path-100-inside-42)"/>
<mask id="path-102-inside-43" fill="white">
<path d="M117 110.866L124.936 120L128 117.567L117 106V110.866Z"/>
</mask>
<path d="M117 110.866H112V112.735L113.226 114.146L117 110.866ZM124.936 120L121.161 123.279L124.299 126.89L128.045 123.916L124.936 120ZM128 117.567L131.109 121.483L135.391 118.083L131.623 114.121L128 117.567ZM117 106L120.623 102.554L112 93.4868V106H117ZM113.226 114.146L121.161 123.279L128.71 116.721L120.774 107.587L113.226 114.146ZM128.045 123.916L131.109 121.483L124.891 113.651L121.827 116.084L128.045 123.916ZM131.623 114.121L120.623 102.554L113.377 109.446L124.377 121.013L131.623 114.121ZM112 106V110.866H122V106H112Z" fill="#E82F5C" mask="url(#path-102-inside-43)"/>
<mask id="path-104-inside-44" fill="white">
<path d="M144 118.833L140.028 121L136 120.167L139.979 118L144 118.833Z"/>
</mask>
<path d="M144 118.833L146.394 123.223L158.35 116.701L145.015 113.937L144 118.833ZM140.028 121L139.015 125.896L140.811 126.268L142.422 125.389L140.028 121ZM136 120.167L133.609 115.775L121.628 122.299L134.987 125.063L136 120.167ZM139.979 118L140.994 113.104L139.198 112.732L137.588 113.609L139.979 118ZM141.606 114.444L137.634 116.611L142.422 125.389L146.394 123.223L141.606 114.444ZM141.041 116.104L137.013 115.27L134.987 125.063L139.015 125.896L141.041 116.104ZM138.391 124.558L142.37 122.391L137.588 113.609L133.609 115.775L138.391 124.558ZM138.964 122.896L142.985 123.729L145.015 113.937L140.994 113.104L138.964 122.896Z" fill="#E82F5C" mask="url(#path-104-inside-44)"/>
<mask id="path-106-inside-45" fill="white">
<path d="M139 113.833L135.028 116L131 115.167L134.979 113L139 113.833Z"/>
</mask>
<path d="M139 113.833L141.394 118.223L153.35 111.701L140.015 108.937L139 113.833ZM135.028 116L134.015 120.896L135.811 121.268L137.422 120.389L135.028 116ZM131 115.167L128.609 110.775L116.628 117.299L129.987 120.063L131 115.167ZM134.979 113L135.994 108.104L134.198 107.732L132.588 108.609L134.979 113ZM136.606 109.444L132.634 111.611L137.422 120.389L141.394 118.223L136.606 109.444ZM136.041 111.104L132.013 110.27L129.987 120.063L134.015 120.896L136.041 111.104ZM133.391 119.558L137.37 117.391L132.588 108.609L128.609 110.775L133.391 119.558ZM133.964 117.896L137.985 118.729L140.015 108.937L135.994 108.104L133.964 117.896Z" fill="#E82F5C" mask="url(#path-106-inside-45)"/>
<mask id="path-108-inside-46" fill="white">
<path d="M142.991 103.617L132 109L133.871 104.642L144 100L142.991 103.617Z"/>
</mask>
<path d="M142.991 103.617L145.19 108.107L147.204 107.121L147.807 104.961L142.991 103.617ZM132 109L127.406 107.027L122.082 119.425L134.199 113.49L132 109ZM133.871 104.642L131.788 100.097L130.037 100.9L129.277 102.67L133.871 104.642ZM144 100L148.816 101.344L151.712 90.9653L141.917 95.4547L144 100ZM140.792 99.1267L129.801 104.51L134.199 113.49L145.19 108.107L140.792 99.1267ZM136.594 110.973L138.465 106.615L129.277 102.67L127.406 107.027L136.594 110.973ZM135.954 109.188L146.083 104.545L141.917 95.4547L131.788 100.097L135.954 109.188ZM139.184 98.6563L138.175 102.273L147.807 104.961L148.816 101.344L139.184 98.6563Z" fill="#E82F5C" mask="url(#path-108-inside-46)"/>
<mask id="path-110-inside-47" fill="white">
<path d="M144 105.833L140.028 108L136 107.167L139.979 105L144 105.833Z"/>
</mask>
<path d="M144 105.833L146.394 110.223L158.351 103.701L145.015 100.937L144 105.833ZM140.028 108L139.015 112.896L140.811 113.268L142.422 112.389L140.028 108ZM136 107.167L133.609 102.775L121.628 109.299L134.987 112.063L136 107.167ZM139.979 105L140.994 100.104L139.198 99.7319L137.588 100.609L139.979 105ZM141.606 101.444L137.634 103.611L142.422 112.389L146.394 110.223L141.606 101.444ZM141.041 103.104L137.013 102.27L134.987 112.063L139.015 112.896L141.041 103.104ZM138.391 111.558L142.37 109.391L137.588 100.609L133.609 102.775L138.391 111.558ZM138.964 109.896L142.985 110.729L145.015 100.937L140.994 100.104L138.964 109.896Z" fill="#E82F5C" mask="url(#path-110-inside-47)"/>
<mask id="path-112-inside-48" fill="white">
<path d="M139 101.831L135.028 104L131 103.169L134.979 101L139 101.831Z"/>
</mask>
<path d="M139 101.831L141.396 106.22L153.351 99.6919L140.012 96.9346L139 101.831ZM135.028 104L134.017 108.897L135.814 109.268L137.424 108.388L135.028 104ZM131 103.169L128.607 98.7787L116.627 105.308L129.99 108.066L131 103.169ZM134.979 101L135.991 96.1035L134.196 95.7324L132.586 96.6098L134.979 101ZM136.604 97.4427L132.632 99.6116L137.424 108.388L141.396 106.22L136.604 97.4427ZM136.038 99.1032L132.01 98.272L129.99 108.066L134.017 108.897L136.038 99.1032ZM133.393 107.559L137.372 105.39L132.586 96.6098L128.607 98.7787L133.393 107.559ZM133.967 105.896L137.988 106.728L140.012 96.9346L135.991 96.1035L133.967 105.896Z" fill="#E82F5C" mask="url(#path-112-inside-48)"/>
</g>
<rect x="0.5" y="0.5" width="185" height="185" stroke="#282626"/>
<defs>
<filter id="filter0_d" x="-17" y="-18" width="130" height="130" filterUnits="userSpaceOnUse" color-interpolation-filters="sRGB">
<feFlood flood-opacity="0" result="BackgroundImageFix"/>
<feColorMatrix in="SourceAlpha" type="matrix" values="0 0 0 0 0 0 0 0 0 0 0 0 0 0 0 0 0 0 127 0"/>
<feOffset/>
<feGaussianBlur stdDeviation="11"/>
<feColorMatrix type="matrix" values="0 0 0 0 1 0 0 0 0 0.658824 0 0 0 0 0.658824 0 0 0 1 0"/>
<feBlend mode="normal" in2="BackgroundImageFix" result="effect1_dropShadow"/>
<feBlend mode="normal" in="SourceGraphic" in2="effect1_dropShadow" result="shape"/>
</filter>
<filter id="filter1_d" x="-17" y="73" width="130" height="130" filterUnits="userSpaceOnUse" color-interpolation-filters="sRGB">
<feFlood flood-opacity="0" result="BackgroundImageFix"/>
<feColorMatrix in="SourceAlpha" type="matrix" values="0 0 0 0 0 0 0 0 0 0 0 0 0 0 0 0 0 0 127 0"/>
<feOffset/>
<feGaussianBlur stdDeviation="11"/>
<feColorMatrix type="matrix" values="0 0 0 0 1 0 0 0 0 0.658824 0 0 0 0 0.658824 0 0 0 1 0"/>
<feBlend mode="normal" in2="BackgroundImageFix" result="effect1_dropShadow"/>
<feBlend mode="normal" in="SourceGraphic" in2="effect1_dropShadow" result="shape"/>
</filter>
<filter id="filter2_d" x="73" y="-18" width="130" height="130" filterUnits="userSpaceOnUse" color-interpolation-filters="sRGB">
<feFlood flood-opacity="0" result="BackgroundImageFix"/>
<feColorMatrix in="SourceAlpha" type="matrix" values="0 0 0 0 0 0 0 0 0 0 0 0 0 0 0 0 0 0 127 0"/>
<feOffset/>
<feGaussianBlur stdDeviation="11"/>
<feColorMatrix type="matrix" values="0 0 0 0 1 0 0 0 0 0.658824 0 0 0 0 0.658824 0 0 0 1 0"/>
<feBlend mode="normal" in2="BackgroundImageFix" result="effect1_dropShadow"/>
<feBlend mode="normal" in="SourceGraphic" in2="effect1_dropShadow" result="shape"/>
</filter>
<filter id="filter3_d" x="73" y="73" width="130" height="130" filterUnits="userSpaceOnUse" color-interpolation-filters="sRGB">
<feFlood flood-opacity="0" result="BackgroundImageFix"/>
<feColorMatrix in="SourceAlpha" type="matrix" values="0 0 0 0 0 0 0 0 0 0 0 0 0 0 0 0 0 0 127 0"/>
<feOffset/>
<feGaussianBlur stdDeviation="11"/>
<feColorMatrix type="matrix" values="0 0 0 0 1 0 0 0 0 0.658824 0 0 0 0 0.658824 0 0 0 1 0"/>
<feBlend mode="normal" in2="BackgroundImageFix" result="effect1_dropShadow"/>
<feBlend mode="normal" in="SourceGraphic" in2="effect1_dropShadow" result="shape"/>
</filter>
<clipPath id="clip0">
</clipPath>
</defs>
</svg>
