<svg width="1382" height="1379" viewBox="0 0 1382 1379" fill="none" xmlns="http://www.w3.org/2000/svg">
<path d="M276.736 321.043H93.0631L35.6493 261.94L224.651 271.788L276.736 321.043Z" stroke="#FFA8A8" stroke-opacity="0.19" stroke-width="2"/>
<path d="M216.814 426.491H215.814V427.491V958.333L142.95 1008.14L143.882 868.588V868.587L146.598 427.497L146.604 426.491H145.598H58.7461L2.40749 367.781L337.22 376.706L393.708 426.491H216.814Z" stroke="#FFA8A8" stroke-opacity="0.19" stroke-width="2"/>
<path d="M246.165 534.908L395.355 670.306V732.149L250.942 605.629L246.165 534.908Z" stroke="#FFA8A8" stroke-opacity="0.19" stroke-width="2"/>
<path d="M773.048 1340.37L768.082 1011.49L854.021 991.78V1307.63L773.048 1340.37Z" stroke="#FFA8A8" stroke-opacity="0.19" stroke-width="2"/>
<path d="M1046.76 1340.38L963.355 1307.62L956.4 985.928L1046.76 1016.42V1340.38Z" stroke="#FFA8A8" stroke-opacity="0.19" stroke-width="2"/>
<path d="M1151.67 1304.94L1068.09 1340.41L1062.37 1297.68L1151.67 1265.2V1304.94Z" stroke="#FFA8A8" stroke-opacity="0.19" stroke-width="2"/>
<path d="M749.113 1341.54L665.543 1377.01L659.819 1333.36L749.113 1301.78V1341.54Z" stroke="#FFA8A8" stroke-opacity="0.19" stroke-width="2"/>
<path d="M258.133 922.792L252.34 856.077L327.043 809.351V872.139L258.133 922.792Z" stroke="#FFA8A8" stroke-opacity="0.19" stroke-width="2"/>
<path d="M1173.4 1030.96L1172.77 1031.21V1031.88V1055.4H1082.23V1037.54L1131.65 1015.92H1210.91L1173.4 1030.96Z" stroke="#FFA8A8" stroke-opacity="0.19" stroke-width="2"/>
<path d="M1081.37 1064.72H1171.72V1087.75V1088.44L1172.36 1088.68L1193.14 1096.79V1128.59H1172.93L1080.81 1087.11L1081.37 1064.72Z" stroke="#FFA8A8" stroke-opacity="0.19" stroke-width="2"/>
<path d="M1381 945.61H427.389V1H1381V945.61Z" stroke="#FFA8A8" stroke-opacity="0.19" stroke-width="2"/>
</svg>
