<svg width="11" height="11" viewBox="0 0 11 11" fill="none" xmlns="http://www.w3.org/2000/svg">
<g clip-path="url(#clip0)">
<path d="M7.01706 2.10192L3.88037 5.5L5.07683 6.79617L8.21352 3.39808L10.1538 5.5V0H5.07683L7.01706 2.10192Z" fill="#431616" fill-opacity="0.7"/>
<path d="M6.76923 9.16671H1.69231V3.66671H3.38461V1.83337H1.69231C1.24348 1.83337 0.813034 2.02653 0.495665 2.37034C0.178296 2.71416 0 3.18048 0 3.66671L0 9.16671C0 9.65294 0.178296 10.1193 0.495665 10.4631C0.813034 10.8069 1.24348 11 1.69231 11H6.76923C7.21806 11 7.6485 10.8069 7.96587 10.4631C8.28324 10.1193 8.46154 9.65294 8.46154 9.16671V7.33337H6.76923V9.16671Z" fill="#431616" fill-opacity="0.7"/>
</g>
<defs>
<clipPath id="clip0">
<rect width="10.1538" height="11" fill="white"/>
</clipPath>
</defs>
</svg>
