<svg id="Layer_1" data-name="Layer 1" xmlns="http://www.w3.org/2000/svg" viewBox="0 0 216.63 222.68">
  <title>a</title>
  <g id="bowl">
    <path d="M100.5,131.55q-8.2,0-8.2,7.43,0,7,9.57,7,6.63,0,9.76-3.22t3.13-11.24Z" fill="none" stroke="#444"/>
  </g>
  <g id="outlines">
    <g>
      <path d="M107,78.82a11.88,11.88,0,0,0,.58-3.32q0-5.07-8.59-6.84a116.31,116.31,0,0,0-22.46-1.75Q47,66.91,26.09,78.82q-9.59-16.21-9.57-41,0-14.05,3.51-20.89" fill="none" stroke="#444"/>
      <path d="M215.93,158.12a23,23,0,0,1,.19,3.71v3.51q0,27.74-16.79,43.17-14.85,13.67-36.72,13.67a53.71,53.71,0,0,1-27.15-7,39.59,39.59,0,0,1-17.58-20.31" fill="none" stroke="#444"/>
      <path d="M117.88,194.84q-6.64,0-6.64,6.44,0,5.47,6.84,12.31-12.7,8.58-38.28,8.59-36.13,0-57.72-19.63T.5,147.67q0-35.25,22.85-54.59,20.9-17.39,54.1-17.38a149.46,149.46,0,0,1,21.88,1.56c4.69.91,7.22,1.43,7.62,1.56" fill="none" stroke="#444"/>
      <path d="M20,16.91Q34.1,10.46,55.77,5.48a203.7,203.7,0,0,1,45.71-5q49.61,0,75,21.68T201.87,83.7V122q0,14.07,3.12,22.66a26,26,0,0,0,10.94,13.48" fill="none" stroke="#444"/>
    </g>
    <g>
      <path d="M107,78.82a11.88,11.88,0,0,0,.58-3.32q0-5.07-8.59-6.84a116.31,116.31,0,0,0-22.46-1.75Q47,66.91,26.09,78.82q-9.59-16.21-9.57-41,0-14.05,3.51-20.89" fill="none" stroke="#444"/>
      <path d="M215.93,158.12a23,23,0,0,1,.19,3.71v3.51q0,27.74-16.79,43.17-14.85,13.67-36.72,13.67a53.71,53.71,0,0,1-27.15-7,39.59,39.59,0,0,1-17.58-20.31" fill="none" stroke="#444"/>
      <path d="M117.88,194.84q-6.64,0-6.64,6.44,0,5.47,6.84,12.31-12.7,8.58-38.28,8.59-36.13,0-57.72-19.63T.5,147.67q0-35.25,22.85-54.59,20.9-17.39,54.1-17.38a149.46,149.46,0,0,1,21.88,1.56c4.69.91,7.22,1.43,7.62,1.56" fill="none" stroke="#444"/>
      <path d="M20,16.91Q34.1,10.46,55.77,5.48a203.7,203.7,0,0,1,45.71-5q49.61,0,75,21.68T201.87,83.7V122q0,14.07,3.12,22.66a26,26,0,0,0,10.94,13.48" fill="none" stroke="#444"/>
    </g>
  </g>
</svg>
