<?xml version="1.0" encoding="utf-8"?>
<!-- Generator: Adobe Illustrator 22.1.0, SVG Export Plug-In . SVG Version: 6.00 Build 0)  -->
<svg version="1.1" id="R" xmlns="http://www.w3.org/2000/svg" xmlns:xlink="http://www.w3.org/1999/xlink" x="0px" y="0px"
	 viewBox="0 0 251 266" style="enable-background:new 0 0 251 266;" xml:space="preserve">
<style type="text/css">
	.st0{fill:none;stroke:#444444;stroke-miterlimit:10;}
</style>
<g id="bowl">
	<path class="st0" d="M109.3,88.8l0-0.3l0.3-0.2c1-0.6,2.8-0.8,5.4-0.8c2.7,0,4.7,1.1,5.8,3.2c1.2,2.2,1.7,5.6,1.7,10.2"/>
	<path class="st0" d="M109.7,119.8l-0.2-0.1V91.9c0-1.5-0.1-2.6-0.2-3.2"/>
	<path class="st0" d="M122.5,100.8v6.9c0,4.4-0.7,7.6-2,9.7c-1.4,2-3.4,3.1-6,3.1c-3.4,0-4.3-0.4-4.7-0.7"/>
</g>
<g id="outlines">
	<path class="st0" d="M0.5,224V36.2c-0.1-6,5.2-11.7,16.3-17.4C27.7,13.4,42,8.9,59.2,5.6c17.6-3.4,35.2-5.1,52.4-5.1
		c39.8,0,71.4,8.2,93.9,24.4c23.7,17,35.8,41.3,35.8,72.2"/>
	<path class="st0" d="M241.3,97.1c0,17.7-5.1,33.1-15.1,45.7c-10,12.6-22.8,21.4-37.9,26.3c0.1,3.7,2.4,5.4,7.1,5.4
		c5,0.1,11.5-2.9,19.7-8.9l0.4-0.3"/>
	<path class="st0" d="M215.5,165.2l35,35.5l0,0.2c-2.3,20.4-9,36.5-19.7,47.8c-10.8,11.1-25.9,16.8-44.8,16.8
		c-14.3,0-26.9-3.4-37.4-10.2c-13.5-8.4-23.7-22-30.3-40.5l-7-19c-5.5-0.1-12.4-0.8-20.6-2.1"/>
	<path class="st0" d="M90.6,193.7c-0.8,0.9-1.3,2.3-1.3,3.8c0,3.2,5.4,5.2,15.7,5.8l0.3,0l11.5,28.9v17.1l-0.2,0.1
		c-15.4,10.7-35.3,16.1-59.1,16.1c-17.1,0-31.1-3.6-41.4-10.6C5.7,247.8,0.5,237.4,0.5,224 M250.5,201"/>
</g>
</svg>
